<?xml version="1.0" standalone="no"?>
<!DOCTYPE svg PUBLIC "-//W3C//DTD SVG 20010904//EN"
 "http://www.w3.org/TR/2001/REC-SVG-20010904/DTD/svg10.dtd">
<svg version="1.0" xmlns="http://www.w3.org/2000/svg"
 width="820.000000pt" height="820.000000pt" viewBox="0 0 820.000000 820.000000"
 preserveAspectRatio="xMidYMid meet">
<metadata>
Created by potrace 1.11, written by Peter Selinger 2001-2013
</metadata>
<g transform="translate(0.000000,820.000000) scale(0.100000,-0.100000)"
fill="#000000" stroke="none">
<path d="M3084 6408 c-32 -16 -66 -36 -75 -44 -8 -8 -18 -14 -21 -14 -4 0 -55
-29 -115 -63 -203 -120 -708 -410 -730 -421 -13 -6 -23 -14 -23 -18 0 -5 -5
-8 -11 -8 -6 0 -58 -28 -117 -63 -59 -35 -114 -66 -122 -70 -8 -4 -24 -13 -35
-20 -11 -7 -54 -32 -95 -55 -41 -24 -90 -52 -109 -63 -78 -46 -300 -174 -351
-202 -30 -17 -58 -35 -62 -41 -4 -6 -8 -514 -8 -1128 l0 -1117 58 -34 c31 -18
64 -36 72 -40 8 -4 24 -13 35 -20 36 -21 229 -134 265 -155 19 -11 107 -61
195 -112 88 -51 174 -100 190 -110 17 -9 84 -48 150 -87 66 -38 127 -72 135
-76 8 -5 24 -13 35 -20 11 -7 49 -29 85 -50 36 -21 72 -42 80 -47 54 -35 172
-100 180 -100 6 0 10 -3 10 -7 0 -5 19 -17 43 -28 23 -11 44 -22 47 -25 3 -4
28 -19 55 -34 28 -16 70 -40 95 -54 25 -13 82 -47 128 -73 l82 -49 0 438 c1
968 2 1102 10 1097 5 -3 12 -1 15 5 4 6 1 9 -6 8 -7 -2 -15 5 -17 16 -2 11 0
16 6 12 6 -3 14 -2 17 4 4 6 1 9 -5 8 -7 -2 -14 7 -16 20 -3 16 0 21 8 16 10
-6 11 -4 1 7 -7 7 -13 21 -13 32 0 12 4 16 13 11 7 -5 7 -1 -2 10 -13 15 -13
19 0 27 12 7 12 9 0 9 -17 0 -5 15 12 15 7 0 12 10 11 23 -1 26 8 28 26 7 14
-17 35 -21 25 -5 -3 6 -1 10 4 10 6 0 11 5 11 11 0 8 -5 8 -15 -1 -12 -10 -18
-10 -30 0 -18 15 -34 5 -28 -18 3 -12 -1 -19 -10 -19 -9 0 -14 10 -14 24 0 13
3 23 8 23 5 0 9 5 9 11 0 5 -4 8 -9 4 -5 -3 -9 8 -9 24 1 17 5 28 10 25 4 -3
8 0 8 5 0 6 -4 11 -8 11 -5 0 -9 25 -10 55 0 30 4 52 9 49 5 -3 9 0 9 5 0 6
-4 11 -10 11 -5 0 -10 5 -10 11 0 5 5 7 10 4 6 -3 10 -1 10 4 0 6 -4 11 -10
11 -5 0 -10 5 -10 10 0 16 19 11 41 -11 17 -17 20 -17 17 -3 -2 9 2 19 8 21
12 4 12 -26 0 -46 -7 -12 -12 -11 -23 4 -7 11 -13 14 -13 9 0 -6 5 -15 12 -22
9 -9 9 -12 0 -12 -7 0 -12 -5 -12 -11 0 -8 5 -8 15 1 8 7 15 9 15 4 0 -4 -12
-19 -27 -32 l-28 -23 37 23 c24 15 33 26 27 34 -6 7 0 11 20 11 20 0 28 -4 24
-14 -3 -7 -9 -10 -14 -7 -5 3 -6 -2 -3 -11 4 -9 3 -15 -2 -14 -21 4 -35 -2
-29 -11 3 -5 -3 -10 -13 -10 -11 0 -26 -8 -33 -17 -10 -11 -10 -14 -1 -9 6 4
12 2 12 -4 0 -5 13 -9 29 -8 16 1 27 6 25 10 -3 4 0 8 7 8 6 0 9 -8 6 -19 -3
-13 0 -18 7 -15 7 3 13 -2 13 -11 0 -9 -6 -14 -14 -11 -8 3 -12 2 -9 -3 6 -10
77 -8 94 3 16 10 15 -5 -2 -26 -14 -19 -32 -25 -21 -8 3 5 1 10 -5 10 -7 0 -9
-7 -6 -16 5 -12 2 -15 -10 -10 -8 3 -19 6 -22 6 -4 0 0 5 8 11 13 9 13 10 -1
6 -9 -3 -26 1 -38 9 -11 8 -21 11 -21 6 0 -5 11 -14 25 -20 27 -12 32 -27 14
-38 -6 -3 2 -14 20 -25 37 -23 38 -26 6 -26 -13 -1 -22 3 -19 8 10 17 -27 22
-43 6 -15 -15 -10 -42 7 -32 4 3 11 -2 14 -11 3 -8 10 -12 16 -9 5 3 10 1 10
-5 0 -6 5 -8 10 -5 17 11 11 24 -9 20 -11 -2 -22 3 -25 11 -3 9 -11 12 -17 8
-7 -4 -10 -1 -7 7 6 18 39 25 36 7 -2 -7 5 -13 14 -13 10 0 23 -6 29 -12 10
-10 9 -17 -5 -32 -17 -19 -20 -19 -42 -4 -13 8 -24 12 -24 7 0 -4 -6 0 -13 11
-14 18 -37 14 -37 -8 0 -7 4 -6 10 3 8 13 11 12 24 -5 9 -11 16 -16 16 -11 0
4 11 1 24 -7 17 -12 26 -13 34 -5 7 7 15 8 19 3 5 -4 2 -10 -4 -12 -7 -3 -13
-9 -13 -15 0 -7 5 -7 13 1 14 11 27 5 27 -12 0 -6 -3 -7 -7 -4 -8 9 -33 -12
-33 -27 0 -6 6 -4 13 5 7 9 21 14 32 12 11 -2 29 -5 39 -6 11 -1 21 -8 24 -16
3 -8 0 -11 -6 -7 -13 8 -42 -3 -42 -15 0 -6 8 -6 18 0 19 10 42 -2 42 -23 0
-6 -5 -5 -12 2 -7 7 -16 12 -22 12 -5 0 5 -11 24 -25 18 -13 37 -22 41 -19 5
3 9 -5 9 -17 0 -21 -1 -21 -18 -6 -10 10 -22 17 -26 17 -4 0 -16 9 -28 19 -11
11 -27 17 -35 14 -12 -5 -12 -7 -2 -14 7 -4 16 -6 20 -3 4 2 13 -4 20 -13 12
-15 12 -16 -6 -10 -12 5 -7 -3 13 -19 18 -14 30 -30 27 -35 -4 -5 -1 -9 4 -9
17 0 13 14 -9 38 -17 18 -18 22 -5 22 9 0 18 -7 21 -15 4 -9 13 -13 24 -10 11
3 17 0 17 -10 0 -10 -6 -14 -16 -10 -12 5 -13 3 -4 -6 13 -13 37 -3 28 12 -4
5 -2 9 4 9 5 0 12 -4 16 -9 8 -14 -34 -41 -52 -34 -12 5 -14 1 -8 -18 7 -21 6
-22 -9 -10 -10 9 -16 10 -16 2 0 -6 5 -11 11 -11 5 0 8 -4 5 -9 -3 -5 1 -11 9
-14 9 -4 12 -1 9 8 -6 15 29 55 48 55 6 0 2 -9 -10 -20 -23 -22 -28 -45 -12
-55 18 -11 11 -35 -7 -29 -17 5 -17 5 -1 -9 10 -8 16 -17 13 -20 -3 -4 -2 -5
2 -2 3 3 12 0 19 -6 9 -7 19 -7 32 0 11 6 23 7 27 3 5 -4 5 -1 1 6 -4 6 -2 12
4 12 6 0 10 -8 8 -17 -2 -10 -11 -17 -20 -15 -9 1 -19 -2 -23 -8 -3 -5 0 -7 8
-4 16 6 44 -23 33 -33 -4 -4 -11 -1 -16 7 -5 8 -11 12 -14 9 -3 -3 5 -17 18
-32 l24 -27 -2 27 c-1 16 -5 33 -8 39 -7 11 -1 24 12 24 7 0 10 -16 11 -68 1
-29 3 -31 15 -15 12 17 13 16 11 -4 -1 -13 -7 -23 -14 -23 -8 0 -6 -7 7 -20
22 -22 25 -36 10 -45 -6 -4 -1 -14 12 -25 26 -21 18 -26 -15 -9 -21 10 -21 10
-3 -5 12 -10 28 -14 40 -10 20 6 20 6 4 -13 -10 -11 -18 -23 -18 -28 0 -4 8 2
19 13 l18 22 19 -21 c19 -21 19 -22 -2 -15 -23 7 -50 -16 -39 -34 8 -13 35
-13 35 0 0 5 -7 7 -15 4 -11 -5 -13 -2 -9 10 8 20 18 20 34 1 10 -12 10 -18 0
-30 -7 -8 -8 -15 -3 -15 6 0 14 -10 20 -22 8 -19 10 -20 16 -4 4 9 3 15 -2 12
-10 -7 -25 24 -16 33 3 3 10 -1 15 -9 6 -8 10 -10 10 -5 0 6 -5 16 -12 23 -16
16 3 15 25 -2 18 -14 24 -32 7 -21 -5 3 -10 1 -10 -5 0 -7 7 -9 16 -6 10 4 14
2 11 -6 -2 -7 -10 -12 -16 -11 -10 3 -13 -4 -10 -23 0 -3 -10 -14 -22 -25 -12
-10 -18 -19 -12 -19 14 0 44 35 36 43 -3 4 -1 7 5 7 7 0 12 -7 12 -15 0 -19 9
-19 32 2 10 9 18 11 18 5 0 -16 -40 -41 -56 -35 -8 3 -14 0 -14 -7 0 -6 5 -8
12 -4 8 5 9 2 4 -12 -6 -16 -4 -16 14 3 11 13 26 23 33 23 7 0 4 -7 -6 -15
-17 -12 -15 -13 17 -11 38 3 41 0 27 -23 -5 -8 -11 -9 -15 -3 -7 11 -56 13
-56 2 0 -4 10 -22 23 -41 16 -23 30 -33 45 -32 12 2 22 -3 22 -10 0 -7 9 -18
21 -25 12 -7 18 -16 15 -19 -3 -3 -13 0 -23 8 -9 8 -14 9 -10 3 4 -7 -7 -18
-28 -28 -21 -10 -33 -22 -29 -28 5 -7 2 -9 -8 -6 -8 4 -15 0 -15 -7 0 -11 5
-11 20 -4 10 6 16 13 13 17 -7 6 50 34 74 36 8 1 14 9 12 19 -2 9 2 17 8 17
13 0 13 -33 -1 -47 -6 -6 -17 -9 -24 -7 -7 3 -16 1 -19 -5 -11 -17 37 -8 56
11 10 10 24 18 31 17 9 0 9 -2 0 -6 -9 -3 -10 -10 -3 -23 7 -13 6 -20 -6 -24
-9 -3 -20 -4 -25 -1 -5 4 -6 -1 -3 -9 3 -9 10 -16 16 -16 5 0 6 -5 2 -12 -5
-8 -11 -6 -20 7 -12 16 -13 16 -11 -3 0 -11 5 -18 9 -16 4 3 8 2 8 -3 0 -4 14
-16 31 -26 18 -10 29 -20 26 -24 -3 -3 -23 4 -43 16 -28 17 -39 19 -48 10 -8
-9 -7 -10 6 -6 10 3 20 2 23 -3 3 -5 0 -10 -7 -13 -7 -2 -2 -2 11 0 21 4 23 2
12 -11 -9 -11 -10 -16 -2 -16 6 0 11 5 11 10 0 6 5 10 11 10 6 0 9 -7 6 -15
-4 -8 -1 -17 5 -21 6 -4 8 -3 4 4 -9 15 13 27 52 28 24 0 31 -3 27 -13 -3 -8
-5 -17 -5 -19 0 -2 -5 -4 -11 -4 -5 0 -7 5 -4 10 3 6 2 10 -3 10 -5 0 -9 -14
-9 -30 0 -19 3 -26 8 -18 4 7 11 10 14 6 4 -3 -4 -16 -17 -28 -19 -18 -20 -20
-4 -14 11 4 17 3 14 -2 -3 -5 0 -15 8 -22 16 -15 18 -8 4 18 -7 13 -4 24 11
44 12 15 24 25 27 22 3 -3 -2 -14 -12 -24 -22 -25 -11 -51 20 -47 13 1 27 -1
29 -5 7 -11 -22 -21 -40 -14 -19 8 -19 -6 2 -31 13 -16 15 -17 10 -2 -4 9 -2
17 3 17 14 0 19 -15 10 -30 -5 -9 -5 -20 2 -28 9 -10 15 -7 29 15 11 15 19 25
19 20 0 -4 13 -1 30 8 37 19 40 19 35 -3 -2 -10 1 -25 5 -33 8 -11 11 -12 22
-1 11 11 9 16 -6 28 -16 11 -17 14 -4 14 8 0 21 -7 28 -15 7 -8 16 -13 20 -10
4 3 11 -2 14 -11 4 -11 1 -14 -12 -10 -9 3 -28 -2 -42 -10 -14 -9 -17 -13 -8
-10 22 7 35 -18 32 -59 -1 -16 0 -24 3 -17 3 6 9 10 14 6 5 -3 9 0 9 5 0 6 -4
11 -10 11 -5 0 -10 5 -10 10 0 7 7 7 20 0 11 -6 18 -15 15 -21 -13 -20 6 -27
35 -12 25 12 34 12 46 2 10 -8 11 -14 4 -19 -12 -8 -3 -40 12 -40 6 0 4 8 -3
17 -12 15 -12 16 4 10 9 -3 17 -3 17 2 0 11 114 8 122 -4 12 -16 9 -35 -4 -32
-6 1 -14 -6 -16 -15 -2 -10 1 -18 7 -18 6 0 8 7 4 15 -3 10 0 15 8 13 9 -2 14
5 13 20 -1 26 -12 24 118 26 82 1 109 -1 113 -12 3 -10 -1 -12 -18 -7 -19 5
-20 4 -4 -5 19 -12 41 -4 32 11 -4 5 -3 9 2 10 4 0 16 2 26 4 20 4 22 -6 5
-23 -7 -7 -9 -12 -4 -12 10 0 36 26 31 31 -2 2 35 4 81 4 51 1 84 -3 84 -10 0
-5 5 -3 10 5 8 12 10 12 11 -5 l0 -20 9 20 c5 11 9 14 9 7 1 -8 6 -10 14 -5
18 12 101 11 109 -1 12 -17 9 -36 -4 -33 -6 1 -14 -6 -16 -16 -2 -9 1 -17 7
-17 6 0 8 7 4 15 -3 10 0 15 8 13 9 -2 14 5 13 20 -1 26 -12 24 118 26 82 1
109 -1 113 -12 3 -10 -1 -12 -18 -7 -19 5 -20 4 -4 -5 19 -12 41 -4 32 11 -4
5 -3 9 2 10 4 0 16 2 26 4 9 2 17 -1 17 -6 0 -5 5 -9 11 -9 5 0 8 4 5 8 -3 5
2 9 10 9 9 0 13 -6 9 -14 -3 -8 -5 -19 -5 -24 0 -5 -5 -8 -12 -6 -6 1 -14 -6
-16 -16 -2 -9 1 -17 7 -17 6 0 8 7 4 15 -3 9 -1 15 6 13 6 -2 17 8 24 21 11
22 19 25 75 26 38 1 62 -3 63 -9 3 -27 5 -31 13 -33 10 -1 26 -24 26 -36 0 -5
-5 -5 -12 -1 -7 5 -8 3 -3 -5 5 -8 11 -9 17 -3 12 12 -8 55 -22 47 -5 -3 -8 4
-7 15 1 11 4 20 7 21 3 0 13 2 23 4 9 2 17 -1 17 -6 0 -5 5 -9 11 -9 5 0 8 4
5 8 -2 4 6 8 20 8 14 0 24 -6 24 -14 0 -7 -4 -10 -10 -7 -6 4 -7 -1 -3 -12 6
-16 5 -16 -10 -4 -10 8 -19 12 -22 10 -2 -3 5 -10 15 -17 17 -10 21 -8 34 16
12 22 21 27 55 28 26 0 42 -5 46 -13 3 -11 -1 -13 -18 -8 -19 5 -20 4 -4 -5
20 -13 38 -5 31 13 -5 14 52 17 74 4 6 -5 12 -4 12 1 0 5 14 9 30 8 17 0 30
-5 30 -10 0 -4 6 -3 14 3 10 8 16 9 21 1 3 -5 12 -10 18 -10 7 0 6 4 -3 10
-10 6 5 9 48 8 35 -1 66 -6 68 -10 3 -5 11 -5 17 0 7 5 101 8 209 8 109 -1
198 3 198 8 0 5 -34 67 -75 138 -41 71 -75 133 -75 139 0 5 -4 9 -10 9 -5 0
-10 4 -10 9 0 6 -17 38 -37 73 -50 84 -68 116 -90 158 -10 19 -20 37 -23 40
-3 3 -11 16 -19 30 -8 14 -36 62 -63 108 -26 46 -48 88 -48 93 0 5 -4 9 -10 9
-5 0 -10 4 -10 9 0 4 -82 150 -181 322 -100 173 -189 328 -199 344 -62 107
-179 311 -213 370 -23 39 -42 76 -43 84 -2 12 13 49 26 61 3 3 17 26 30 53 14
26 29 47 33 47 5 0 6 4 3 8 -3 5 2 18 12 28 9 11 18 26 20 34 2 8 8 17 13 18
5 2 9 10 9 18 0 8 4 14 10 14 5 0 9 3 8 8 -3 14 25 61 33 56 5 -3 6 2 3 10 -3
9 -1 16 5 16 6 0 11 6 11 14 0 8 7 21 15 30 9 8 16 19 16 23 1 9 50 95 59 103
3 3 14 24 25 47 11 24 23 43 28 43 4 0 7 6 7 14 0 8 6 21 13 28 6 7 20 29 29
48 25 50 69 128 101 177 15 24 27 47 27 53 0 5 5 10 11 10 5 0 8 4 4 9 -3 5
-1 12 4 15 12 8 76 119 73 129 -1 4 2 7 7 7 5 0 14 15 22 33 7 17 16 34 19 37
4 3 17 25 31 50 13 25 27 47 30 50 3 3 19 30 35 60 16 30 31 57 34 60 3 3 12
19 20 35 8 17 17 32 20 35 3 3 17 26 30 53 14 26 28 47 32 47 5 0 8 5 8 11 0
7 33 68 73 137 39 70 74 131 76 137 2 5 13 21 23 35 l20 25 -34 5 c-18 3 -322
5 -675 5 -380 0 -639 4 -636 9 4 5 0 5 -8 0 -18 -11 -479 -13 -479 -1 0 4 -8
4 -17 -1 -10 -5 -103 -8 -206 -8 -103 1 -191 -1 -195 -4 -4 -3 -7 -12 -7 -20
0 -8 -5 -14 -12 -13 -7 2 -10 -3 -7 -11 3 -7 -2 -20 -10 -29 -9 -9 -16 -20
-16 -25 0 -5 -7 -15 -15 -22 -8 -7 -15 -19 -15 -28 0 -8 -9 -23 -21 -33 -11
-10 -18 -22 -15 -28 4 -5 2 -12 -4 -16 -5 -3 -10 -1 -10 4 0 6 -9 11 -20 11
-11 0 -20 5 -20 10 0 6 -7 10 -15 10 -8 0 -15 4 -15 10 0 5 -3 9 -7 8 -13 -2
-47 15 -61 31 -11 13 -12 13 -7 1 4 -9 -2 -6 -12 5 -10 11 -25 21 -33 23 -8 2
-18 8 -21 13 -3 6 -13 11 -21 13 -8 1 -27 9 -41 19 -15 9 -31 17 -37 17 -5 0
-10 5 -10 10 0 6 -4 10 -9 10 -13 0 -175 92 -179 102 -2 4 -8 8 -14 8 -5 0
-63 32 -129 70 -66 39 -122 70 -125 70 -2 0 -23 12 -47 27 -23 15 -55 34 -72
43 -44 24 -109 61 -120 69 -5 4 -30 19 -56 34 l-45 26 -60 -31z m349 -2057
c-3 -11 -12 -22 -20 -25 -8 -3 -11 -11 -7 -17 4 -8 3 -9 -5 -5 -6 4 -8 12 -5
18 4 6 3 8 -3 5 -5 -3 -8 -19 -7 -35 1 -22 -2 -29 -14 -28 -9 2 -18 8 -20 15
-2 6 0 10 5 9 4 -2 9 2 11 7 1 6 -2 10 -7 10 -5 0 -13 4 -18 9 -4 5 -3 6 4 2
6 -3 15 0 20 8 8 15 11 16 39 16 8 0 13 4 10 9 -4 5 0 12 6 14 7 3 14 6 15 6
0 1 -1 -8 -4 -18z m-98 -47 c14 -6 14 -9 0 -30 -11 -17 -12 -24 -4 -24 18 0 1
-13 -21 -17 -24 -3 -25 3 -6 23 8 7 12 23 9 34 -6 22 -3 23 22 14z m-40 -44
c-21 -23 -11 -41 18 -36 12 3 26 5 30 5 5 1 5 11 2 24 -7 21 -7 21 11 4 18
-17 18 -19 2 -31 -10 -7 -14 -17 -10 -21 4 -5 1 -5 -7 0 -10 6 -12 2 -6 -14 5
-15 2 -21 -10 -21 -9 0 -14 -4 -10 -9 3 -5 -1 -16 -9 -24 -8 -8 -13 -16 -11
-19 2 -2 -5 -4 -15 -5 -28 -2 -25 9 8 29 15 10 21 18 14 18 -7 0 -10 4 -7 10
3 5 1 18 -5 27 -10 16 -10 16 -5 -3 7 -28 -25 -38 -54 -17 -12 8 -21 10 -21 4
0 -6 5 -11 11 -11 5 0 7 -4 4 -10 -4 -6 1 -7 12 -4 12 4 10 -1 -7 -15 l-25
-20 23 -16 c12 -9 20 -21 17 -26 -3 -5 -16 0 -27 11 -35 32 -58 21 -33 -16 8
-12 11 -24 7 -27 -4 -2 -1 -2 6 0 8 1 12 -3 9 -9 -2 -7 -13 -11 -23 -10 -15 3
-16 1 -7 -8 9 -10 16 -9 32 2 20 14 20 14 -5 43 -13 15 -21 31 -18 34 6 6 49
-40 56 -60 2 -7 22 -13 43 -13 34 -1 42 -5 54 -31 8 -16 18 -31 22 -33 5 -2 2
-10 -6 -19 -10 -10 -12 -19 -6 -27 6 -8 3 -11 -13 -12 -15 -1 -22 4 -23 17 -1
11 2 17 6 14 5 -2 15 3 22 12 12 14 12 16 0 8 -9 -5 -12 -4 -7 3 3 6 2 13 -3
17 -6 3 -8 13 -5 23 5 15 4 15 -6 2 -10 -13 -11 -12 -6 5 6 20 6 20 -9 1 -9
-12 -15 -14 -15 -7 0 7 -6 11 -12 8 -7 -2 -20 -1 -29 4 -10 5 -23 3 -35 -5
-25 -19 -61 -2 -61 30 0 13 3 21 8 18 5 -3 9 0 9 5 0 6 -4 11 -9 11 -11 0 -9
19 3 39 6 10 5 12 -2 7 -7 -4 -12 -3 -12 2 0 5 9 12 21 15 12 3 18 10 14 16
-3 6 -2 11 4 11 5 0 12 -5 14 -10 3 -6 4 -5 3 2 -2 7 -9 13 -17 13 -8 0 -13
-6 -11 -12 1 -7 -5 -13 -13 -13 -8 0 -15 9 -15 21 0 11 5 17 10 14 6 -3 10 -1
10 4 0 6 -4 11 -10 11 -16 0 -1 25 23 36 16 7 28 6 47 -6 13 -8 21 -10 17 -4
-4 7 0 14 8 18 8 3 15 10 15 16 0 6 -7 4 -16 -4 -18 -18 -34 -21 -34 -6 0 6 7
10 15 10 9 0 18 6 21 14 3 8 12 12 20 9 8 -3 14 0 14 7 0 6 5 8 11 5 7 -5 5
-13 -6 -25z m-10 -110 c-4 -6 -10 -8 -15 -5 -11 7 -21 -21 -14 -39 3 -8 13
-12 22 -10 11 4 9 -1 -7 -15 -13 -12 -19 -21 -14 -21 5 0 14 5 20 11 8 8 14 5
22 -10 7 -12 9 -21 6 -21 -12 0 -20 5 -18 12 2 4 -4 5 -12 2 -8 -4 -12 -11 -9
-18 4 -6 -1 -3 -11 6 -14 13 -16 20 -7 31 9 11 8 18 -8 32 -19 17 -19 18 3 36
24 20 52 26 42 9z m-15 -154 c0 3 7 1 15 -6 8 -7 15 -9 15 -6 0 4 6 1 13 -6
19 -17 17 -37 -4 -33 -10 2 -20 -3 -23 -11 -3 -8 -2 -12 3 -9 5 3 12 1 16 -5
5 -9 -6 -14 -26 -12 -3 1 -6 -6 -6 -14 0 -7 3 -12 5 -9 6 6 31 -26 32 -41 0
-7 -13 0 -29 15 -27 24 -28 28 -15 52 10 20 10 29 1 39 -9 10 -9 11 0 6 6 -3
15 -1 19 5 5 8 3 9 -6 4 -9 -6 -12 -4 -8 6 4 10 -1 15 -13 15 -11 0 -15 -4
-10 -9 5 -5 7 -16 4 -23 -10 -26 -21 -14 -20 20 1 30 4 33 19 25 10 -5 18 -7
18 -3z m123 -109 c-3 -4 5 -16 16 -26 18 -16 19 -20 6 -25 -11 -4 -14 -2 -9 6
5 7 3 8 -6 3 -8 -5 -11 -4 -6 3 3 6 2 13 -3 17 -6 3 -8 -3 -6 -14 3 -14 -2
-19 -16 -18 -23 2 -23 4 -4 23 8 9 15 21 15 27 0 8 -3 8 -8 2 -10 -15 -32 -17
-32 -3 0 6 -3 8 -6 5 -4 -4 -1 -13 6 -22 9 -11 9 -15 1 -15 -7 0 -9 -5 -5 -12
4 -7 3 -8 -5 -4 -6 4 -9 11 -6 16 3 4 -2 11 -11 14 -8 3 -13 10 -10 15 4 5 0
12 -6 14 -7 3 6 3 30 1 39 -4 56 6 32 21 -6 4 -7 11 -4 17 4 7 14 2 25 -13 9
-13 15 -27 12 -32z m-120 -31 c3 3 10 -3 16 -14 7 -13 19 -18 36 -17 14 2 25
-1 25 -6 0 -5 5 -9 11 -9 5 0 7 5 4 11 -4 6 2 5 13 -2 12 -7 18 -17 16 -21 -3
-4 0 -8 6 -8 6 0 8 -5 4 -11 -4 -8 -11 -3 -20 12 -13 24 -13 24 -11 2 1 -13 5
-23 10 -23 4 0 5 -5 2 -10 -5 -8 -12 -7 -23 2 -10 8 -13 9 -9 1 4 -7 0 -16
-10 -22 -10 -6 -13 -11 -7 -11 5 0 15 5 22 12 13 13 15 8 6 -16 -3 -9 -11 -13
-17 -9 -6 4 -7 1 -2 -7 6 -9 1 -10 -16 -5 -19 5 -21 4 -9 -4 8 -6 11 -11 6
-11 -6 0 -5 -5 1 -11 8 -8 17 -8 32 0 27 15 28 0 1 -17 -12 -7 -26 -9 -33 -5
-8 5 -8 2 1 -9 7 -9 9 -18 4 -20 -5 -1 -1 -16 9 -33 11 -16 19 -23 19 -15 0
13 1 13 10 0 7 -11 10 -11 10 -2 0 7 5 10 10 7 6 -4 17 -1 25 5 14 12 14 11
15 -42 0 -33 -3 -48 -11 -48 -13 0 -18 15 -9 30 10 16 2 40 -12 40 -6 0 -4 -8
3 -17 13 -16 12 -17 -3 -5 -9 8 -22 11 -27 8 -5 -4 -19 4 -30 16 -24 25 -23
21 -25 76 -2 40 -11 54 -41 66 -6 2 -5 9 3 17 10 11 12 10 12 -4 0 -15 2 -15
20 3 11 11 25 20 31 20 5 0 7 5 4 10 -3 6 1 13 10 16 12 5 13 9 4 20 -9 12
-15 12 -27 2 -13 -10 -14 -10 -8 0 4 6 3 12 -1 12 -5 0 -15 -6 -22 -12 -11
-11 -12 -10 -6 1 6 11 4 13 -9 8 -9 -4 -15 -3 -12 1 2 4 -4 18 -13 31 -16 20
-21 22 -41 11 -16 -8 -25 -9 -33 -1 -8 8 -5 11 11 11 13 0 25 7 29 17 6 14 8
14 23 -5 10 -12 20 -19 23 -16z m170 -35 c4 0 7 -6 7 -12 0 -8 -5 -7 -15 1
-13 11 -14 10 -9 -4 3 -9 11 -16 18 -16 11 0 51 -59 48 -72 -1 -5 3 -8 10 -8
6 0 9 -3 5 -6 -3 -4 5 -22 20 -40 14 -19 21 -34 17 -34 -5 0 0 -7 10 -15 11
-8 16 -15 11 -15 -5 0 2 -12 16 -26 13 -14 22 -26 21 -27 -7 -4 21 -57 30 -57
4 0 7 -3 6 -7 -2 -13 15 -47 34 -67 9 -10 15 -23 12 -27 -2 -4 2 -12 11 -16 8
-5 16 -18 18 -31 2 -12 13 -31 25 -43 12 -11 20 -24 17 -29 -3 -4 2 -11 11
-14 8 -3 12 -10 9 -16 -3 -5 0 -10 7 -10 10 0 9 -3 -2 -10 -9 -5 -19 -5 -27 1
-7 6 -17 8 -22 5 -5 -4 -13 -1 -17 5 -5 8 -3 9 6 4 9 -6 11 -4 5 5 -6 9 -4 11
6 6 8 -4 6 -1 -3 6 -15 11 -15 13 0 25 15 12 15 12 -3 7 -17 -5 -18 -4 -5 6
13 10 13 11 -2 6 -10 -3 -20 -1 -23 4 -4 6 0 10 7 11 10 0 10 2 -1 6 -11 5
-11 7 0 14 11 7 11 9 1 9 -7 0 -11 4 -7 9 3 5 1 12 -4 16 -6 3 -8 -3 -6 -15 2
-11 -2 -20 -8 -20 -7 0 -6 -4 3 -11 13 -9 13 -10 0 -6 -8 2 -14 12 -12 22 2
10 -1 14 -7 10 -6 -3 -11 -14 -11 -23 0 -14 -2 -15 -10 -2 -6 9 -5 17 3 22 9
6 9 8 -1 8 -7 0 -10 5 -6 11 5 8 9 8 14 -1 5 -9 9 -9 14 -1 4 6 2 11 -5 11 -8
0 -8 4 1 15 7 9 10 18 6 22 -3 3 -6 0 -6 -8 0 -12 -2 -12 -10 1 -5 8 -12 11
-17 7 -4 -5 -1 -12 6 -16 8 -5 9 -11 3 -15 -18 -11 -24 28 -7 40 11 8 12 14 5
19 -5 3 -7 11 -4 17 4 7 2 8 -5 4 -6 -4 -11 -4 -10 1 1 4 1 15 0 23 -1 12 -3
13 -10 1 -6 -9 -11 -10 -15 -2 -4 6 -2 11 3 11 6 0 11 5 11 11 0 8 -5 7 -16
-1 -8 -8 -14 -9 -13 -4 3 20 -2 35 -10 29 -5 -3 -13 0 -17 6 -5 8 -3 9 6 4 9
-6 11 -4 5 5 -5 8 -4 11 2 7 5 -3 10 0 10 8 0 11 -4 12 -14 4 -10 -9 -13 -8
-13 4 0 22 -17 30 -24 11 -4 -10 -2 -13 7 -8 9 5 9 4 0 -7 -10 -10 -16 -10
-25 -1 -9 9 -9 12 1 12 7 0 9 5 6 10 -3 6 0 10 7 10 9 0 9 3 -2 10 -8 5 -10
10 -4 10 6 0 11 8 11 18 0 17 -14 32 -32 32 -5 0 -4 -4 4 -9 9 -6 10 -11 2
-15 -10 -6 -13 0 -10 20 0 4 -5 10 -11 14 -9 5 -9 9 -1 14 6 4 11 2 11 -3 0
-6 5 -11 11 -11 8 0 8 5 -1 15 -7 8 -16 13 -20 10 -4 -3 -11 2 -14 11 -3 8 -2
12 3 9 5 -3 12 -2 15 3 3 5 -1 9 -9 10 -8 1 -21 3 -29 4 -8 1 -14 10 -13 20 2
22 6 23 24 1 13 -16 13 -16 3 5 -6 12 -12 22 -15 22 -13 0 -35 -14 -35 -22 0
-5 4 -6 10 -3 6 3 7 -1 3 -10 -4 -13 -8 -14 -14 -4 -4 8 -12 10 -16 5 -4 -5
-2 -11 5 -13 6 -3 9 -9 6 -15 -4 -6 -10 -5 -16 3 -8 11 -9 11 -6 1 2 -8 7 -13
12 -12 9 2 26 -19 26 -33 0 -5 -4 -6 -9 -2 -5 3 -13 0 -17 -6 -4 -8 -3 -9 4
-5 14 9 15 -4 2 -24 -10 -16 -11 -14 -14 35 -1 20 -5 21 -41 10 -16 -4 -15 -3
3 6 12 7 22 18 22 25 0 7 11 26 25 42 22 26 23 31 10 49 -14 21 -10 22 38 14z
m-3 -101 c0 13 2 13 9 0 6 -8 7 -18 5 -22 -3 -4 0 -8 7 -8 7 0 9 -3 6 -6 -3
-4 -2 -15 3 -25 7 -12 6 -20 -2 -25 -7 -5 -8 -3 -3 7 7 12 6 12 -7 1 -14 -11
-18 -10 -25 5 -5 10 -8 28 -7 41 0 12 -3 22 -8 22 -5 0 -6 5 -2 11 4 8 9 7 15
-2 7 -11 9 -11 9 1z m-60 -80 c10 -20 2 -50 -14 -53 -16 -4 -27 33 -16 53 6
11 13 20 15 20 2 0 9 -9 15 -20z m53 -22 c-2 -5 1 -8 6 -8 6 0 11 4 11 9 0 4
10 7 23 7 12 -1 28 3 36 8 12 9 12 8 3 -10 -6 -12 -8 -24 -5 -28 3 -3 2 -6 -4
-6 -13 0 -13 -33 1 -42 6 -4 19 -5 30 -2 11 4 16 2 12 -4 -3 -6 4 -18 16 -26
12 -9 19 -16 14 -16 -5 0 -1 -9 9 -20 10 -11 23 -17 29 -13 6 3 8 3 4 -2 -4
-4 -3 -14 3 -22 8 -9 8 -17 2 -25 -11 -15 -13 -48 -3 -48 4 0 7 -7 7 -15 0 -8
-4 -12 -9 -9 -4 3 -8 0 -8 -6 0 -6 -5 -8 -10 -5 -6 4 -7 12 -3 18 12 19 12 36
2 43 -6 3 -4 11 5 17 13 11 13 15 -4 35 -12 15 -24 21 -32 16 -25 -16 -35 -12
-35 12 0 13 3 21 8 19 4 -3 10 -1 13 4 4 5 1 13 -5 17 -8 5 -10 2 -5 -7 4 -8
1 -6 -7 4 -16 19 -28 22 -24 6 1 -6 -4 -14 -11 -16 -14 -5 -12 18 2 28 5 4 -1
10 -13 14 -21 6 -28 20 -13 28 4 2 1 2 -6 1 -7 -2 -12 4 -10 13 3 19 -28 25
-50 9 -19 -14 -24 -2 -11 27 9 20 14 23 24 14 7 -7 11 -15 8 -19z m21 -32 c-3
-8 3 -23 13 -34 24 -25 27 -44 6 -40 -13 2 -18 -4 -19 -21 -1 -23 0 -23 12 -7
7 10 18 15 24 11 6 -4 19 -1 28 7 15 12 16 11 3 -4 -11 -15 -11 -18 0 -18 11
0 11 -2 1 -9 -11 -6 -11 -10 0 -19 21 -17 24 -18 40 -5 12 11 18 9 32 -6 16
-17 16 -19 0 -25 -11 -4 -13 -10 -7 -19 14 -18 10 -40 -7 -44 -13 -4 -13 -3 0
6 11 8 12 11 2 11 -7 0 -11 4 -8 8 7 12 -12 38 -21 29 -4 -5 -1 -12 7 -17 8
-6 12 -10 8 -10 -3 0 -13 -2 -21 -6 -10 -3 -14 2 -14 18 -1 44 -3 50 -17 45
-10 -4 -13 1 -11 18 1 14 -2 22 -6 19 -5 -3 -9 0 -9 7 0 8 -5 7 -12 -4 -7 -9
-22 -15 -33 -12 -11 2 -24 4 -29 4 -5 1 -2 9 7 19 10 10 14 22 10 25 -3 4 -1
7 6 7 7 0 9 4 6 10 -4 6 1 7 12 4 17 -5 17 -5 1 9 -10 8 -15 17 -11 20 3 4 1
7 -7 7 -10 0 -10 3 0 15 16 19 21 19 14 1z m40 -143 c2 -10 8 -18 14 -18 6 0
14 -4 19 -9 5 -5 3 -6 -4 -2 -16 9 -17 -6 -1 -22 9 -9 9 -12 -2 -12 -13 0 -13
-2 0 -10 8 -5 11 -12 7 -17 -10 -10 -28 18 -22 34 2 7 -8 21 -23 31 -23 17
-24 22 -13 36 16 19 21 16 25 -11z m71 -82 c-3 -6 4 -15 16 -21 14 -8 18 -15
11 -22 -12 -12 -35 -1 -27 12 12 19 -14 19 -38 0 -31 -25 -44 -26 -26 -2 13
15 12 16 -4 3 -16 -13 -16 -15 -1 -32 9 -10 20 -16 25 -14 4 3 10 1 14 -5 6
-9 -7 -14 -27 -11 -5 0 -8 -3 -8 -8 0 -6 9 -9 20 -8 11 1 20 4 20 8 0 12 30
39 43 39 7 0 3 -7 -7 -15 -11 -8 -14 -15 -8 -15 19 0 27 4 25 13 -2 4 2 7 7 7
13 0 13 -27 0 -35 -8 -5 -7 -11 1 -21 7 -8 7 -14 1 -14 -5 0 -16 10 -24 22
-14 20 -15 21 -41 3 -22 -14 -30 -15 -42 -5 -8 7 -12 17 -9 22 4 5 1 21 -6 34
-11 19 -11 26 0 39 7 8 21 13 30 10 9 -3 23 1 30 10 13 16 35 21 25 6z m-8
-28 c-4 -3 -2 -12 4 -20 6 -7 8 -14 3 -14 -60 -9 -69 -1 -32 25 23 16 37 21
25 9z m77 -19 c3 -8 11 -12 16 -9 18 11 57 -22 57 -47 1 -46 3 -50 23 -45 11
3 23 1 26 -4 3 -5 10 -6 16 -3 6 4 9 1 6 -6 -2 -7 -15 -14 -29 -16 -13 -1 -18
0 -11 2 6 3 12 11 12 17 0 8 -4 7 -12 -1 -9 -9 -15 -8 -27 2 -9 8 -20 15 -26
15 -5 0 -11 5 -14 12 -2 8 1 9 10 3 11 -6 10 -3 -1 11 -14 17 -13 18 5 12 19
-7 19 -6 2 7 -14 10 -15 15 -5 19 9 4 9 6 1 6 -6 1 -15 -3 -18 -9 -3 -5 -11
-10 -17 -10 -7 0 -7 4 1 13 8 10 7 14 -2 14 -7 0 -13 -11 -13 -23 0 -12 3 -21
6 -19 3 2 6 -4 6 -13 1 -9 5 -25 9 -35 5 -13 4 -16 -9 -11 -9 3 -13 11 -9 18
4 6 -1 5 -10 -3 -9 -7 -14 -17 -11 -22 3 -5 0 -17 -6 -26 -7 -12 -10 -13 -7
-3 2 8 0 23 -5 33 -6 12 -5 17 7 17 18 0 20 16 3 26 -8 5 -6 11 6 20 17 12 17
13 -1 31 -14 14 -16 22 -8 31 14 15 22 15 29 -4z m36 -68 c0 -3 -4 -8 -10 -11
-5 -3 -10 -1 -10 4 0 6 5 11 10 11 6 0 10 -2 10 -4z m9 -45 c8 -14 7 -20 -2
-24 -7 -3 -12 5 -12 19 0 29 1 29 14 5z m74 -27 c11 1 26 11 33 21 8 10 14 13
14 7 0 -24 2 -27 22 -49 12 -13 17 -23 12 -23 -5 0 -2 -5 8 -10 10 -6 15 -20
13 -36 -2 -18 2 -24 11 -20 16 6 30 -36 18 -55 -4 -8 -3 -9 5 -5 14 9 47 -28
56 -62 5 -23 12 -33 43 -67 10 -11 10 -15 1 -15 -6 0 0 -11 15 -25 23 -22 28
-31 25 -51 0 -4 3 -10 8 -13 15 -11 48 -54 36 -47 -7 4 -13 4 -13 -1 0 -12 16
-35 24 -34 3 1 6 -1 6 -4 -1 -3 6 -13 15 -21 8 -9 13 -20 10 -25 -4 -5 1 -9
10 -9 11 0 15 -5 12 -14 -3 -8 1 -20 8 -26 8 -7 12 -16 9 -21 -3 -5 0 -9 5 -9
6 0 11 -7 11 -15 0 -8 6 -15 13 -15 9 0 9 -2 -1 -8 -9 -6 -5 -12 13 -22 14 -8
23 -20 21 -27 -3 -7 -1 -13 4 -13 6 0 10 -7 10 -15 0 -8 6 -15 13 -15 8 0 7
-4 -3 -10 -13 -8 -13 -10 1 -10 21 0 41 -44 27 -58 -8 -8 -5 -9 11 -5 16 4 21
1 21 -13 0 -9 6 -25 14 -33 8 -9 16 -23 18 -31 2 -8 12 -23 23 -33 11 -10 15
-16 9 -13 -7 3 -14 0 -17 -8 -3 -8 1 -13 8 -12 8 0 14 -3 14 -9 1 -5 -5 -10
-11 -10 -7 0 -19 -7 -26 -15 -11 -13 -12 -12 -7 8 4 13 2 22 -4 22 -14 0 -51
37 -51 51 0 6 8 8 18 5 9 -3 24 -1 32 4 11 7 11 10 2 10 -7 0 -10 5 -7 10 5 9
-9 14 -18 8 -8 -6 -37 25 -32 32 6 10 -57 6 -73 -4 -12 -7 -10 39 1 51 7 6 11
-12 8 -30 -2 -10 42 12 51 26 8 14 -2 38 -13 31 -5 -3 -9 1 -9 8 0 10 -2 10
-8 1 -5 -8 -13 -9 -22 -3 -13 8 -12 10 2 10 9 0 20 5 24 12 5 8 2 9 -9 5 -9
-3 -19 -1 -23 5 -5 7 -2 8 6 3 9 -6 11 -4 5 5 -6 9 -4 11 6 6 8 -4 5 0 -5 8
-11 9 -14 16 -7 16 7 0 9 5 5 11 -5 8 -8 8 -14 0 -9 -16 -28 8 -25 32 2 9 -1
17 -6 17 -6 0 -8 4 -5 9 3 5 -1 14 -9 21 -11 9 -15 9 -15 1 0 -7 -5 -9 -11 -5
-8 4 -7 9 2 15 11 7 11 9 -1 9 -9 0 -11 3 -5 8 6 4 11 14 13 22 1 10 -3 9 -14
-5 -16 -20 -16 -20 -9 3 3 12 3 22 -2 21 -19 -3 -33 2 -33 12 0 5 4 8 9 4 5
-3 13 0 17 6 5 8 3 9 -6 4 -9 -6 -11 -4 -5 5 6 9 4 11 -5 5 -9 -6 -11 -4 -5 6
5 8 4 11 -1 6 -5 -5 -10 -13 -10 -18 -1 -5 -2 -14 -3 -20 0 -5 -6 -7 -11 -4
-7 4 -6 13 1 27 9 16 8 19 -3 12 -11 -6 -11 -5 0 8 8 10 9 19 3 22 -5 4 -8 15
-6 26 2 10 -4 25 -13 32 -15 11 -15 11 -5 -3 13 -16 8 -29 -9 -29 -5 0 -7 4
-3 9 3 5 0 13 -5 16 -7 5 -5 12 7 22 17 14 17 14 0 9 -11 -3 -16 -2 -12 4 3 6
1 10 -4 10 -6 0 -11 -5 -11 -11 0 -5 -4 -7 -10 -4 -5 3 -10 11 -10 16 0 6 4 8
8 5 12 -7 38 12 29 21 -5 4 -12 1 -17 -7 -6 -8 -10 -13 -11 -10 0 3 -3 14 -5
25 -3 11 -5 28 -5 38 0 9 -4 17 -10 17 -5 0 -8 -3 -8 -7 3 -20 -2 -34 -11 -28
-7 4 -7 12 0 25 14 26 12 33 -6 26 -14 -5 -15 -4 -4 9 11 13 7 19 -12 17 -3
-1 -9 5 -12 13 -3 9 0 12 10 8 7 -3 14 -1 14 4 0 5 -9 9 -20 10 -17 2 -20 -2
-15 -20 5 -19 4 -19 -9 3 -15 25 -4 46 18 33 5 -3 6 -1 2 5 -4 6 -13 9 -20 6
-8 -3 -17 -1 -21 5 -3 6 -2 11 2 11 5 0 9 9 10 20 1 16 -1 17 -12 7 -7 -6 -11
-19 -10 -28 2 -9 -1 -22 -6 -30 -7 -10 -8 -6 -5 14 3 16 0 27 -7 27 -6 0 -3 6
8 13 12 9 14 16 7 21 -6 4 -9 14 -6 24 5 13 4 14 -4 4 -7 -11 -10 -11 -15 2
-4 10 -13 13 -24 9 -16 -6 -16 -5 -4 10 7 9 18 14 25 11 6 -4 -2 6 -19 22 -16
16 -32 27 -35 24 -3 -3 -18 -6 -33 -7 -22 -1 -27 3 -23 16 5 14 4 14 -7 1 -14
-17 -37 -24 -37 -11 0 5 7 11 15 15 9 3 12 12 8 23 -5 14 -2 13 17 -5 13 -12
32 -20 43 -18z m-94 -11 c6 -14 9 -28 6 -31 -3 -3 -5 1 -5 8 0 7 -3 10 -6 7
-4 -4 -1 -14 7 -24 12 -15 12 -16 -4 -10 -11 4 -16 3 -12 -3 3 -6 0 -10 -7
-10 -9 0 -9 -3 2 -10 8 -5 11 -10 5 -10 -5 0 -4 -5 3 -12 8 -8 15 -8 25 1 11
9 17 8 26 -3 10 -12 9 -15 -6 -15 -44 -1 -54 -4 -44 -14 7 -7 15 -6 26 3 8 7
15 10 15 7 0 -3 2 -12 5 -19 4 -10 -2 -14 -19 -13 -30 0 -40 10 -43 38 -1 12
-4 34 -7 50 -2 15 0 27 5 27 6 0 7 6 2 13 -12 19 -10 55 3 50 6 -2 17 -16 23
-30z m51 -26 c0 -6 5 -6 13 1 13 10 41 9 70 -3 13 -6 15 -10 6 -21 -9 -11 -16
-10 -43 7 -29 19 -29 19 -8 1 27 -25 27 -27 2 -29 -11 -1 -19 1 -19 5 5 30
-16 41 -33 17 -5 -6 -8 -5 -8 3 0 7 -4 10 -10 7 -5 -3 -7 0 -4 8 6 15 34 19
34 4z m4 -43 c-15 -11 -16 -13 -3 -8 10 3 20 0 24 -6 6 -9 10 -9 16 1 7 11 9
11 9 -1 0 -13 1 -13 10 0 5 8 12 11 17 7 9 -9 -17 -28 -29 -21 -4 3 -8 0 -8
-7 0 -7 -7 -4 -16 7 -15 18 -15 18 -5 -3 15 -30 14 -33 -6 -26 -17 7 -17 6 0
-11 20 -21 24 -44 4 -27 -10 8 -14 7 -14 -2 0 -22 58 -13 71 11 6 11 15 20 20
19 13 -3 16 32 4 40 -6 3 -8 1 -5 -4 4 -6 0 -16 -8 -23 -21 -17 -19 4 3 27 9
10 16 17 15 15 -1 -3 8 -13 20 -24 12 -11 16 -17 10 -13 -12 6 -18 -8 -13 -30
1 -5 3 -19 4 -30 1 -12 8 -19 17 -17 9 1 21 -9 27 -22 8 -18 17 -24 33 -21 17
4 20 2 11 -7 -17 -17 -15 -31 3 -24 21 8 19 0 -7 -25 -13 -12 -17 -19 -10 -15
6 4 18 4 25 -1 6 -4 16 -8 21 -8 5 0 10 -8 12 -17 1 -10 -3 -18 -8 -18 -6 0
-3 -9 7 -20 10 -11 23 -17 29 -13 6 3 8 3 4 -2 -4 -4 -3 -14 3 -22 9 -10 8
-13 -2 -13 -10 -1 -8 -4 4 -11 9 -5 22 -7 29 -3 6 4 8 3 4 -4 -3 -6 -2 -14 4
-17 7 -5 8 -11 1 -19 -12 -14 -10 -32 8 -66 11 -20 11 -23 0 -13 -9 9 -16 10
-26 2 -9 -8 -13 -8 -13 -1 0 6 4 13 9 16 14 9 6 41 -10 42 -34 2 -40 5 -35 13
3 4 17 7 30 6 15 -2 24 2 23 8 -2 14 -18 27 -32 27 -5 0 -3 -4 5 -10 8 -5 11
-12 7 -17 -9 -9 -28 17 -21 29 3 4 0 8 -7 8 -9 0 -9 3 0 14 9 11 9 16 0 22 -8
5 -9 3 -4 -5 6 -10 3 -11 -14 -2 -25 14 -28 22 -3 15 13 -4 13 -2 -3 8 -19 12
-27 28 -28 56 0 7 -6 11 -13 8 -18 -7 -29 13 -16 26 13 13 -4 52 -19 43 -5 -4
-8 -1 -7 7 2 7 -3 12 -11 10 -8 -2 -11 3 -8 12 4 10 0 14 -14 11 -11 -2 -17 0
-15 4 3 4 -3 8 -12 9 -45 5 -65 0 -83 -20 -10 -13 -18 -18 -19 -12 0 5 6 16
13 23 6 8 8 12 2 9 -5 -3 -21 5 -35 18 -13 13 -19 24 -12 24 6 0 12 -6 12 -12
0 -7 5 -5 11 5 6 10 8 21 5 24 -3 4 -1 11 4 18 7 8 2 19 -16 36 -14 13 -24 18
-22 10 2 -7 -3 -16 -10 -18 -13 -5 -13 18 1 28 5 3 22 6 39 7 28 1 29 0 12
-14z m60 -56 c-1 -13 -3 -29 -3 -37 -1 -11 -4 -11 -16 -1 -19 16 -19 25 1 44
20 21 21 20 18 -6z m32 -88 c5 1 10 -3 12 -10 5 -13 -20 -9 -30 5 -7 9 -8 7
-8 -22 0 -5 5 -9 10 -9 23 -3 24 -5 13 -12 -8 -5 -9 -13 -3 -22 8 -13 10 -12
11 3 2 21 3 27 14 51 7 16 9 17 17 2 5 -9 14 -14 19 -10 5 3 8 0 7 -8 -2 -7 2
-12 9 -11 19 4 23 -25 5 -39 -8 -7 -13 -8 -10 -3 3 6 -5 24 -19 40 -14 17 -23
23 -20 14 3 -9 1 -21 -5 -27 -8 -8 -7 -16 3 -28 12 -15 12 -17 -1 -12 -8 3
-22 -1 -31 -9 -14 -12 -17 -12 -22 2 -4 8 -2 15 3 15 19 0 10 31 -16 55 -26
24 -24 51 2 41 8 -3 14 0 14 7 0 9 3 8 9 -1 4 -8 12 -13 17 -12z m59 -80 c-3
-4 10 -17 28 -29 17 -11 28 -21 22 -21 -5 0 -3 -5 5 -11 12 -8 11 -9 -5 -7
-14 2 -19 -2 -17 -15 2 -10 -3 -16 -10 -15 -7 2 -11 -4 -10 -12 2 -8 0 -12 -4
-8 -4 5 -9 20 -10 35 -2 15 0 22 4 16 6 -9 11 -7 20 7 10 16 9 21 -8 30 -16 8
-24 7 -36 -5 -8 -8 -11 -15 -5 -15 5 0 12 4 16 10 3 5 12 7 21 3 8 -3 12 -8 9
-12 -6 -6 -10 -7 -36 -10 -5 0 -7 -5 -4 -11 3 -5 2 -10 -3 -10 -18 0 -23 33
-7 50 11 12 12 19 4 27 -17 17 -1 37 17 22 7 -6 12 -15 9 -19z m73 -100 c18
-16 28 -31 24 -31 -41 -8 -62 -4 -57 11 3 9 0 8 -10 -4 -16 -20 -52 -29 -61
-14 -3 4 -10 8 -17 8 -6 0 -3 -6 8 -14 20 -13 38 -16 87 -16 15 0 29 -4 33
-10 3 -5 12 -10 18 -10 8 0 8 3 2 8 -13 9 -17 32 -6 32 12 0 21 -39 10 -46 -5
-3 -7 -9 -5 -13 3 -4 -13 -7 -35 -7 -22 1 -40 5 -39 10 2 13 -28 28 -40 21
-12 -7 -31 10 -48 42 -11 20 -10 21 10 17 44 -10 73 -9 71 4 -2 7 0 11 5 11
26 -4 34 1 22 16 -21 25 -5 17 28 -15z m77 -129 c-1 -7 -9 -18 -18 -23 -10 -5
-15 -13 -12 -19 4 -5 1 -9 -5 -9 -6 0 -10 10 -8 23 2 16 -2 22 -14 21 -17 -2
-24 7 -14 17 2 2 20 4 39 4 23 0 34 -4 32 -14z m80 -44 c4 -12 8 -24 9 -27 5
-18 19 -28 30 -24 7 3 13 -1 14 -8 2 -30 9 -48 25 -65 10 -12 15 -30 12 -51
-3 -23 0 -32 10 -32 8 0 15 -4 15 -10 0 -5 5 -10 11 -10 5 0 7 4 4 10 -3 6 1
7 10 4 15 -6 15 -8 1 -22 -14 -15 -17 -14 -29 2 -12 16 -15 17 -23 5 -8 -14
-10 -19 -12 -51 -1 -10 -5 -17 -9 -17 -20 3 -33 -2 -30 -12 1 -6 -4 -14 -11
-16 -11 -4 -12 -1 -3 14 6 13 7 23 0 30 -6 6 0 14 17 22 23 10 26 10 20 -4 -3
-10 -2 -14 5 -10 15 10 5 30 -14 30 -9 0 -17 5 -17 10 0 6 9 10 19 10 11 0 23
4 27 8 5 4 0 5 -11 1 -19 -8 -19 -7 -2 10 18 19 23 31 8 21 -5 -3 -12 -1 -16
5 -3 5 -1 10 5 10 6 0 4 9 -5 23 -8 13 -12 27 -8 30 3 4 1 7 -6 7 -7 0 -9 4
-6 10 3 5 -6 22 -22 37 -15 16 -26 33 -25 40 4 18 -15 25 -22 7 -3 -9 -11 -12
-18 -8 -10 6 -9 3 0 -9 12 -14 11 -16 -6 -14 -19 1 -21 11 -13 56 1 2 7 -2 15
-8 16 -13 32 1 21 19 -3 5 0 7 8 4 8 -3 18 -15 22 -27z m-84 -40 c-5 -12 -13
-23 -20 -23 -6 -1 -16 -2 -22 -3 -5 0 -7 -6 -3 -12 3 -6 9 -7 13 -3 10 15 31
15 31 0 0 -9 -9 -13 -26 -11 -31 3 -51 20 -35 29 5 4 8 12 5 20 -3 7 7 18 21
24 16 7 24 17 20 25 -4 6 0 4 9 -6 10 -13 12 -26 7 -40z m64 14 c-3 -5 6 -18
20 -29 13 -11 21 -22 18 -26 -3 -3 -1 -6 6 -6 7 0 10 -4 7 -8 -3 -5 2 -21 10
-36 18 -36 18 -35 -6 -33 -11 1 -22 7 -25 14 -3 11 0 11 18 3 21 -10 21 -10 3
4 -10 8 -16 18 -13 23 3 5 -1 19 -9 33 -7 14 -13 20 -14 15 0 -13 -40 -17 -40
-4 0 5 4 9 9 9 5 0 8 8 6 18 -2 17 2 32 11 32 3 0 3 -4 -1 -9z m-30 -49 c0
-12 8 -17 25 -17 29 1 43 -14 29 -32 -11 -12 7 -60 18 -49 3 3 15 0 26 -6 20
-10 20 -11 2 -24 -10 -8 -24 -14 -29 -14 -6 0 -5 4 2 9 11 7 11 9 -1 14 -12 4
-14 0 -11 -19 2 -13 0 -24 -6 -24 -5 0 -10 5 -10 11 0 5 -4 7 -10 4 -5 -3 -10
-1 -10 4 0 6 4 11 9 11 18 0 22 34 5 49 -9 9 -14 11 -11 5 4 -7 0 -17 -8 -24
-20 -16 -19 0 1 28 9 13 11 22 4 22 -6 0 -8 5 -5 10 3 6 1 10 -4 10 -6 0 -11
-4 -11 -8 0 -5 -10 -8 -22 -6 -13 1 -26 3 -30 3 -5 1 -8 5 -8 10 0 5 13 8 29
6 l30 -4 -21 21 c-16 16 -18 22 -7 29 16 10 24 4 24 -19z m205 -242 c0 -5 -2
-10 -4 -10 -3 0 -8 5 -11 10 -3 6 -1 10 4 10 6 0 11 -4 11 -10z"/>
<path d="M3260 4211 c-13 -25 -13 -31 2 -31 6 0 8 3 5 6 -3 4 -2 15 4 25 5 11
7 19 5 19 -3 0 -10 -9 -16 -19z"/>
<path d="M3196 4208 c5 -8 1 -9 -12 -4 -14 5 -16 4 -7 -5 6 -6 16 -8 22 -5 14
9 14 26 0 26 -5 0 -7 -5 -3 -12z"/>
<path d="M3306 4195 c4 -8 10 -15 15 -15 4 0 6 7 3 15 -4 8 -10 15 -15 15 -4
0 -6 -7 -3 -15z"/>
<path d="M3545 3590 c10 -11 20 -20 22 -20 2 0 -2 9 -9 20 -7 11 -17 20 -22
20 -5 0 -1 -9 9 -20z"/>
<path d="M3586 3527 c3 -10 9 -15 12 -12 3 3 0 11 -7 18 -10 9 -11 8 -5 -6z"/>
<path d="M3736 3272 c-2 -4 3 -18 13 -31 13 -17 18 -19 18 -7 0 8 -7 18 -14
20 -8 3 -11 10 -8 16 3 5 4 10 1 10 -3 0 -7 -4 -10 -8z"/>
<path d="M3439 3705 c-5 -22 -2 -45 6 -44 6 1 8 6 6 13 -2 6 -4 17 -4 24 0 12
-6 17 -8 7z"/>
<path d="M3360 3620 c-9 -6 -10 -10 -3 -10 6 0 15 5 18 10 8 12 4 12 -15 0z"/>
<path d="M3476 3607 c3 -10 9 -15 12 -12 3 3 0 11 -7 18 -10 9 -11 8 -5 -6z"/>
<path d="M3555 3480 c-3 -5 -1 -10 4 -10 6 0 11 5 11 10 0 6 -2 10 -4 10 -3 0
-8 -4 -11 -10z"/>
<path d="M3565 3440 c-4 -6 -11 -7 -17 -4 -7 4 -8 2 -4 -5 4 -6 11 -9 16 -6 4
3 10 0 12 -7 3 -9 6 -9 12 0 4 7 2 12 -4 12 -6 0 -8 5 -5 10 3 6 4 10 1 10 -3
0 -8 -5 -11 -10z"/>
<path d="M3786 3182 c-6 -10 3 -23 29 -42 17 -12 16 -10 -3 11 -12 14 -19 29
-15 32 3 4 4 7 0 7 -3 0 -8 -4 -11 -8z"/>
<path d="M3830 3099 c0 -5 5 -7 10 -4 6 3 10 8 10 11 0 2 -4 4 -10 4 -5 0 -10
-5 -10 -11z"/>
<path d="M4274 2325 c3 -23 12 -26 13 -5 1 11 -2 20 -7 20 -4 0 -7 -7 -6 -15z"/>
<path d="M4286 2238 c4 -5 12 -7 20 -4 7 3 16 1 19 -4 3 -4 -1 -11 -7 -13 -8
-4 -9 -6 -2 -6 6 -1 17 6 24 15 8 8 9 14 4 13 -5 -1 -11 0 -14 1 -17 7 -48 5
-44 -2z"/>
<path d="M3776 3127 c3 -10 9 -15 12 -12 3 3 0 11 -7 18 -10 9 -11 8 -5 -6z"/>
<path d="M3790 2999 c0 -5 5 -9 10 -9 6 0 12 0 15 0 14 0 8 13 -7 16 -10 1
-18 -2 -18 -7z"/>
<path d="M3936 2828 c3 -5 10 -6 15 -3 13 9 11 12 -6 12 -8 0 -12 -4 -9 -9z"/>
<path d="M3750 3019 c0 -5 5 -7 10 -4 6 3 10 8 10 11 0 2 -4 4 -10 4 -5 0 -10
-5 -10 -11z"/>
<path d="M3920 2766 c0 -2 8 -10 18 -17 15 -13 16 -12 3 4 -13 16 -21 21 -21
13z"/>
<path d="M3913 2693 c-7 -3 -13 -9 -13 -15 0 -7 5 -6 14 1 11 9 15 9 19 -1 4
-9 6 -9 6 -1 1 15 -10 22 -26 16z"/>
<path d="M3987 2639 c7 -7 15 -10 18 -7 3 3 -2 9 -12 12 -14 6 -15 5 -6 -5z"/>
<path d="M4150 2476 c0 -2 8 -10 18 -17 15 -13 16 -12 3 4 -13 16 -21 21 -21
13z"/>
<path d="M3965 2560 c-3 -5 -1 -10 4 -10 6 0 11 5 11 10 0 6 -2 10 -4 10 -3 0
-8 -4 -11 -10z"/>
<path d="M4155 5889 c-4 -6 -5 -12 -2 -15 2 -3 7 2 10 11 7 17 1 20 -8 4z"/>
<path d="M4236 5878 c3 -5 10 -6 15 -3 13 9 11 12 -6 12 -8 0 -12 -4 -9 -9z"/>
<path d="M4280 5880 c-9 -6 -10 -10 -3 -10 6 0 15 5 18 10 8 12 4 12 -15 0z"/>
<path d="M3181 3801 c-9 -15 -6 -22 14 -35 13 -9 28 -16 32 -16 4 0 0 5 -9 11
-9 5 -16 15 -14 22 1 6 1 9 -1 5 -11 -19 -23 -6 -13 12 6 11 8 20 6 20 -3 0
-10 -9 -15 -19z"/>
<path d="M3215 3810 c3 -5 8 -10 11 -10 2 0 4 5 4 10 0 6 -5 10 -11 10 -5 0
-7 -4 -4 -10z"/>
<path d="M3186 3678 l-18 -33 21 25 c18 22 26 40 18 40 -1 0 -11 -15 -21 -32z"/>
<path d="M3190 3598 c0 -6 3 -8 7 -5 3 4 12 -1 20 -11 13 -15 13 -15 3 6 -11
23 -30 30 -30 10z"/>
<path d="M3237 3589 c7 -7 15 -10 18 -7 3 3 -2 9 -12 12 -14 6 -15 5 -6 -5z"/>
<path d="M3272 3560 c0 -14 2 -19 5 -12 2 6 2 18 0 25 -3 6 -5 1 -5 -13z"/>
<path d="M3330 3525 c0 -8 2 -15 4 -15 2 0 6 7 10 15 3 8 1 15 -4 15 -6 0 -10
-7 -10 -15z"/>
<path d="M3190 3526 c0 -2 7 -7 16 -10 8 -3 12 -2 9 4 -6 10 -25 14 -25 6z"/>
<path d="M3250 3520 c0 -5 5 -10 10 -10 6 0 10 5 10 10 0 6 -4 10 -10 10 -5 0
-10 -4 -10 -10z"/>
<path d="M3313 3516 c1 -11 9 -21 17 -23 10 -3 11 -2 4 4 -6 4 -14 15 -17 23
-5 11 -6 9 -4 -4z"/>
<path d="M3276 3503 c-6 -14 -5 -15 5 -6 7 7 10 15 7 18 -3 3 -9 -2 -12 -12z"/>
<path d="M3236 3498 c5 -7 2 -9 -8 -6 -8 4 -15 0 -15 -7 0 -10 5 -11 19 -4 16
9 17 29 2 29 -3 0 -2 -5 2 -12z"/>
<path d="M3290 3486 c0 -2 7 -7 16 -10 8 -3 12 -2 9 4 -6 10 -25 14 -25 6z"/>
<path d="M3271 3475 c0 -5 4 -17 9 -25 7 -11 10 -11 10 -2 0 7 5 10 12 6 7 -4
8 -3 4 5 -4 6 -11 9 -16 6 -4 -3 -11 1 -13 7 -3 7 -6 9 -6 3z"/>
<path d="M3213 3447 c0 -7 9 -14 19 -14 10 -1 18 3 18 9 0 6 -3 8 -7 5 -3 -4
-11 -2 -18 3 -8 7 -12 6 -12 -3z"/>
<path d="M3317 3446 c-4 -9 -3 -15 2 -12 5 3 12 -1 15 -10 3 -8 10 -13 15 -10
5 3 12 -1 15 -10 3 -8 10 -13 15 -10 5 4 12 1 14 -4 4 -7 5 -6 4 0 -2 7 -6 11
-11 10 -5 -1 -13 5 -18 14 -5 9 -14 13 -20 10 -8 -5 -9 -1 -5 10 4 9 3 15 -2
11 -5 -3 -11 0 -13 7 -3 7 -7 5 -11 -6z"/>
<path d="M3269 3417 c10 -13 11 -20 2 -30 -8 -10 -7 -14 4 -14 8 0 11 5 8 10
-4 6 0 8 10 4 23 -9 12 15 -16 32 -20 13 -21 13 -8 -2z"/>
<path d="M3310 3416 c0 -2 8 -10 18 -17 15 -13 16 -12 3 4 -13 16 -21 21 -21
13z"/>
<path d="M3350 3380 c0 -5 7 -10 16 -10 8 0 12 -4 9 -10 -3 -5 -1 -10 4 -10
18 0 12 19 -9 30 -14 7 -20 7 -20 0z"/>
<path d="M3330 3369 c0 -5 -6 -7 -12 -3 -7 4 -9 3 -5 -1 13 -15 36 -14 30 1
-6 17 -13 18 -13 3z"/>
<path d="M3170 3339 c0 -5 5 -7 10 -4 6 3 10 8 10 11 0 2 -4 4 -10 4 -5 0 -10
-5 -10 -11z"/>
<path d="M3352 3327 c-8 -10 -6 -13 11 -14 12 0 16 1 9 4 -6 3 -10 9 -6 14 8
14 -2 11 -14 -4z"/>
<path d="M3284 3323 c4 -4 16 -8 28 -10 12 -2 19 -1 16 2 -3 3 -16 8 -28 10
-12 2 -20 1 -16 -2z"/>
<path d="M3390 3300 c0 -5 5 -10 10 -10 6 0 10 5 10 10 0 6 -4 10 -10 10 -5 0
-10 -4 -10 -10z"/>
<path d="M3230 3286 c0 -2 7 -7 16 -10 8 -3 12 -2 9 4 -6 10 -25 14 -25 6z"/>
<path d="M3333 3273 c0 -7 4 -10 9 -7 5 3 15 1 23 -6 10 -8 15 -8 21 1 5 8 3
9 -6 4 -9 -6 -12 -4 -8 6 4 9 -2 14 -17 14 -12 0 -22 -5 -22 -12z"/>
<path d="M3415 3280 c-3 -5 -3 -10 1 -10 3 0 -4 -9 -17 -21 l-24 -20 27 17
c15 9 26 20 23 24 -3 5 5 11 17 13 23 4 23 4 1 6 -12 0 -25 -3 -28 -9z"/>
<path d="M3333 3234 c0 -9 4 -11 12 -4 7 5 14 9 16 7 2 -1 3 0 1 2 -7 11 -29
7 -29 -5z"/>
<path d="M3430 3240 c0 -6 6 -13 13 -16 7 -2 13 -14 14 -25 1 -16 -1 -18 -11
-10 -9 8 -13 7 -13 -3 0 -8 7 -13 16 -11 20 2 23 45 5 52 -8 3 -11 9 -8 14 3
5 0 9 -5 9 -6 0 -11 -5 -11 -10z"/>
<path d="M3405 3222 c-13 -9 -19 -35 -6 -28 5 4 12 0 15 -6 3 -7 3 -2 0 11 -5
17 -3 21 6 16 9 -5 11 -4 6 3 -8 14 -8 14 -21 4z"/>
<path d="M3500 3201 c0 -6 4 -13 10 -16 6 -3 7 1 4 9 -7 18 -14 21 -14 7z"/>
<path d="M3255 3181 c-3 -5 -2 -12 3 -15 5 -3 9 1 9 9 0 17 -3 19 -12 6z"/>
<path d="M3476 3173 c-6 -14 -5 -15 5 -6 7 7 10 15 7 18 -3 3 -9 -2 -12 -12z"/>
<path d="M3499 3163 c-1 -5 -1 -12 0 -17 1 -5 -5 -6 -14 -3 -8 4 -15 2 -15 -4
0 -6 8 -9 17 -7 9 2 15 7 14 13 -1 5 6 12 16 16 17 7 17 8 1 8 -10 1 -19 -2
-19 -6z"/>
<path d="M3294 3136 c1 -8 5 -18 8 -22 4 -3 5 1 4 10 -1 8 -5 18 -8 22 -4 3
-5 -1 -4 -10z"/>
<path d="M3442 3124 c-7 -8 -8 -14 -3 -14 10 0 25 19 20 25 -2 1 -10 -3 -17
-11z"/>
<path d="M3550 3129 c0 -5 -5 -7 -12 -3 -6 4 -4 -3 5 -17 20 -28 22 -50 5 -46
-7 1 -14 -9 -15 -23 -2 -24 -2 -24 5 -2 4 13 12 24 17 25 6 1 9 11 7 22 -1 11
-3 28 -3 38 0 18 -9 25 -9 6z"/>
<path d="M3359 3113 c-13 -16 -12 -17 4 -4 16 13 21 21 13 21 -2 0 -10 -8 -17
-17z"/>
<path d="M3390 3121 c0 -6 4 -13 10 -16 6 -3 7 1 4 9 -7 18 -14 21 -14 7z"/>
<path d="M3510 3121 c0 -6 4 -13 10 -16 6 -3 7 1 4 9 -7 18 -14 21 -14 7z"/>
<path d="M3415 3090 c-4 -6 -15 -8 -25 -5 -10 3 -21 2 -23 -3 -9 -13 41 -8 55
6 6 6 9 12 6 12 -4 0 -10 -5 -13 -10z"/>
<path d="M3520 3079 c0 -5 5 -7 10 -4 6 3 10 8 10 11 0 2 -4 4 -10 4 -5 0 -10
-5 -10 -11z"/>
<path d="M3580 3081 c0 -5 7 -14 15 -21 10 -9 15 -9 15 -1 0 6 -5 11 -11 11
-5 0 -7 5 -4 10 3 6 1 10 -4 10 -6 0 -11 -4 -11 -9z"/>
<path d="M3313 3055 c0 -8 4 -12 9 -9 5 3 6 10 3 15 -9 13 -12 11 -12 -6z"/>
<path d="M3476 3053 c-6 -14 -5 -15 5 -6 7 7 10 15 7 18 -3 3 -9 -2 -12 -12z"/>
<path d="M3570 3046 c0 -2 7 -7 16 -10 8 -3 12 -2 9 4 -6 10 -25 14 -25 6z"/>
<path d="M3550 3020 c0 -5 8 -7 18 -3 14 5 15 3 5 -8 -7 -7 -13 -17 -13 -23 0
-5 6 -1 14 9 8 11 12 23 10 27 -7 11 -34 10 -34 -2z"/>
<path d="M3389 3003 c-13 -16 -12 -17 4 -4 16 13 21 21 13 21 -2 0 -10 -8 -17
-17z"/>
<path d="M3513 2985 c0 -8 4 -15 9 -15 4 0 8 4 8 9 0 6 -4 12 -8 15 -5 3 -9
-1 -9 -9z"/>
<path d="M3590 2990 c0 -5 6 -10 13 -10 7 0 13 -9 14 -20 1 -11 -2 -18 -7 -15
-5 3 -14 -5 -20 -17 -9 -20 -9 -21 2 -7 7 9 21 15 30 13 14 -2 16 1 8 16 -5 9
-7 20 -4 23 3 3 -4 10 -15 17 -14 7 -21 7 -21 0z"/>
<path d="M3373 2965 c0 -8 4 -12 9 -9 5 3 6 10 3 15 -9 13 -12 11 -12 -6z"/>
<path d="M3570 2960 c0 -5 5 -10 10 -10 6 0 10 5 10 10 0 6 -4 10 -10 10 -5 0
-10 -4 -10 -10z"/>
<path d="M3534 2922 c4 -3 14 -7 22 -8 9 -1 13 0 10 4 -4 3 -14 7 -22 8 -9 1
-13 0 -10 -4z"/>
<path d="M3475 2911 c-3 -5 -2 -12 3 -15 5 -3 9 1 9 9 0 17 -3 19 -12 6z"/>
<path d="M3513 2905 c0 -8 4 -12 9 -9 5 3 6 10 3 15 -9 13 -12 11 -12 -6z"/>
<path d="M3595 2900 c-3 -5 -1 -10 4 -10 6 0 11 5 11 10 0 6 -2 10 -4 10 -3 0
-8 -4 -11 -10z"/>
<path d="M3628 2888 c-10 -10 -14 -18 -9 -18 10 0 36 29 30 34 -2 1 -12 -6
-21 -16z"/>
<path d="M3558 2893 c7 -3 16 -2 19 1 4 3 -2 6 -13 5 -11 0 -14 -3 -6 -6z"/>
<path d="M3656 2881 c-3 -5 6 -8 20 -8 19 0 22 2 13 8 -18 11 -26 11 -33 0z"/>
<path d="M3455 2860 c-3 -5 -1 -10 4 -10 6 0 11 5 11 10 0 6 -2 10 -4 10 -3 0
-8 -4 -11 -10z"/>
<path d="M3559 2853 c-13 -16 -12 -17 4 -4 16 13 21 21 13 21 -2 0 -10 -8 -17
-17z"/>
<path d="M3630 2853 c5 -2 8 -9 4 -14 -3 -5 0 -9 6 -9 15 0 7 23 -8 26 -7 1
-8 0 -2 -3z"/>
<path d="M3668 2853 c7 -3 16 -2 19 1 4 3 -2 6 -13 5 -11 0 -14 -3 -6 -6z"/>
<path d="M3697 2846 c-4 -10 -3 -15 3 -11 6 3 10 1 10 -6 0 -7 3 -10 6 -6 3 3
2 13 -4 22 -8 16 -9 16 -15 1z"/>
<path d="M3575 2841 c-3 -5 -2 -12 3 -15 5 -3 9 1 9 9 0 17 -3 19 -12 6z"/>
<path d="M3604 2819 c-3 -6 0 -17 8 -25 13 -13 15 -13 15 0 0 8 -5 12 -10 9
-6 -4 -8 0 -4 10 7 19 2 23 -9 6z"/>
<path d="M3670 2820 c8 -5 20 -10 25 -10 6 0 3 5 -5 10 -8 5 -19 10 -25 10 -5
0 -3 -5 5 -10z"/>
<path d="M3513 2793 c0 -9 4 -10 14 -2 7 6 13 12 13 14 0 1 -6 2 -13 2 -8 0
-14 -6 -14 -14z"/>
<path d="M3555 2801 c-3 -5 -2 -12 3 -15 5 -3 9 1 9 9 0 17 -3 19 -12 6z"/>
<path d="M3645 2800 c-3 -6 1 -7 9 -4 18 7 21 14 7 14 -6 0 -13 -4 -16 -10z"/>
<path d="M3587 2779 c7 -7 15 -10 18 -7 3 3 -2 9 -12 12 -14 6 -15 5 -6 -5z"/>
<path d="M3697 2784 c-8 -9 3 -34 15 -34 6 0 6 6 -2 14 -9 12 -8 15 10 13 16
-1 20 -6 16 -20 -3 -13 1 -21 14 -24 21 -6 36 -33 18 -33 -6 0 -9 -3 -5 -6 3
-3 10 -3 16 0 14 9 -8 56 -24 50 -7 -3 -11 4 -11 17 1 15 -6 23 -20 25 -12 2
-24 1 -27 -2z"/>
<path d="M3657 2759 c6 -23 9 -24 16 -5 3 8 0 17 -7 19 -10 4 -12 -1 -9 -14z"/>
<path d="M3633 2755 c0 -8 4 -12 9 -9 5 3 6 10 3 15 -9 13 -12 11 -12 -6z"/>
<path d="M3534 2716 c1 -8 5 -18 8 -22 4 -3 5 1 4 10 -1 8 -5 18 -8 22 -4 3
-5 -1 -4 -10z"/>
<path d="M3646 2718 c3 -5 10 -6 15 -3 13 9 11 12 -6 12 -8 0 -12 -4 -9 -9z"/>
<path d="M3704 2715 c-18 -15 -18 -15 0 -8 13 4 17 3 12 -5 -5 -8 -1 -10 10
-5 11 4 13 8 6 11 -7 2 -10 8 -6 13 8 13 1 11 -22 -6z"/>
<path d="M3673 2675 c0 -8 4 -12 9 -9 4 3 8 9 8 15 0 5 -4 9 -8 9 -5 0 -9 -7
-9 -15z"/>
<path d="M3730 2680 c0 -5 5 -10 10 -10 6 0 10 5 10 10 0 6 -4 10 -10 10 -5 0
-10 -4 -10 -10z"/>
<path d="M3790 2678 c0 -6 3 -8 6 -5 4 3 16 0 28 -8 24 -18 36 -19 36 -4 0 5
-4 8 -9 5 -4 -3 -17 1 -27 9 -23 18 -34 19 -34 3z"/>
<path d="M3750 2659 c-12 -8 -10 -9 9 -4 13 4 21 3 18 -2 -3 -5 -1 -15 4 -23
7 -11 8 -9 6 9 -4 29 -16 35 -37 20z"/>
<path d="M3693 2646 c0 -15 22 -15 34 0 4 5 4 6 -1 2 -5 -4 -14 -3 -21 2 -8 7
-12 5 -12 -4z"/>
<path d="M3626 2642 c-2 -4 4 -8 14 -8 10 0 16 4 14 8 -3 4 -9 8 -14 8 -5 0
-11 -4 -14 -8z"/>
<path d="M3821 2643 c-1 -17 16 -25 25 -12 4 7 3 9 -4 5 -5 -3 -13 0 -15 6 -4
9 -6 10 -6 1z"/>
<path d="M3756 2627 c3 -10 9 -15 12 -12 3 3 0 11 -7 18 -10 9 -11 8 -5 -6z"/>
<path d="M3590 2619 c0 -5 5 -7 10 -4 6 3 10 8 10 11 0 2 -4 4 -10 4 -5 0 -10
-5 -10 -11z"/>
<path d="M3724 2615 c-5 -13 -9 -13 -23 -3 -14 12 -15 11 -2 -5 8 -9 16 -15
19 -12 3 3 10 0 17 -5 8 -7 12 -5 12 5 0 8 -5 11 -10 8 -6 -4 -8 0 -4 10 3 10
4 17 1 17 -2 0 -7 -7 -10 -15z"/>
<path d="M3651 2607 c-8 -10 -7 -14 2 -14 8 0 14 6 14 14 0 7 -1 13 -2 13 -2
0 -8 -6 -14 -13z"/>
<path d="M3935 2600 c-3 -5 -1 -10 4 -10 6 0 11 5 11 10 0 6 -2 10 -4 10 -3 0
-8 -4 -11 -10z"/>
<path d="M3850 2581 c0 -6 4 -11 9 -11 5 0 11 -9 14 -20 3 -11 11 -20 19 -19
10 0 10 2 1 6 -7 2 -13 10 -13 18 0 7 -7 18 -15 25 -10 9 -15 9 -15 1z"/>
<path d="M3770 2571 c0 -7 -4 -10 -9 -7 -5 4 -8 -2 -6 -11 1 -10 -2 -25 -8
-33 -6 -8 -8 -12 -3 -8 5 4 18 3 30 -3 18 -9 19 -8 6 3 -17 14 -19 27 -6 46 4
7 5 16 2 19 -3 4 -6 1 -6 -6z"/>
<path d="M3890 2565 c0 -8 2 -15 4 -15 2 0 6 7 10 15 3 8 1 15 -4 15 -6 0 -10
-7 -10 -15z"/>
<path d="M3830 2561 c0 -5 5 -13 10 -16 6 -3 10 -2 10 4 0 5 -4 13 -10 16 -5
3 -10 2 -10 -4z"/>
<path d="M3630 2539 c0 -5 5 -7 10 -4 6 3 10 8 10 11 0 2 -4 4 -10 4 -5 0 -10
-5 -10 -11z"/>
<path d="M3710 2536 c7 -7 13 -7 20 0 6 6 3 10 -10 10 -13 0 -16 -4 -10 -10z"/>
<path d="M3800 2546 c0 -2 7 -7 16 -10 8 -3 12 -2 9 4 -6 10 -25 14 -25 6z"/>
<path d="M3850 2520 c0 -5 5 -10 10 -10 6 0 10 5 10 10 0 6 -4 10 -10 10 -5 0
-10 -4 -10 -10z"/>
<path d="M3815 2510 c-3 -6 1 -7 9 -4 18 7 21 14 7 14 -6 0 -13 -4 -16 -10z"/>
<path d="M3736 2487 c3 -10 9 -15 12 -12 3 3 0 11 -7 18 -10 9 -11 8 -5 -6z"/>
<path d="M3830 2496 c0 -2 7 -9 15 -16 13 -11 14 -10 9 4 -5 14 -24 23 -24 12z"/>
<path d="M3790 2475 c5 -7 8 -14 5 -17 -3 -2 2 -5 10 -5 10 0 12 4 5 12 -5 7
-8 14 -5 17 3 2 -2 5 -10 5 -10 0 -12 -4 -5 -12z"/>
<path d="M3870 2460 c0 -5 5 -10 10 -10 6 0 10 5 10 10 0 6 -4 10 -10 10 -5 0
-10 -4 -10 -10z"/>
<path d="M3837 2432 c4 -8 2 -13 -3 -9 -5 3 -10 -3 -10 -14 0 -18 2 -18 12 -5
6 9 14 13 18 9 4 -4 4 1 0 11 -6 15 -4 17 7 11 8 -5 11 -4 6 0 -14 16 -36 14
-30 -3z"/>
<path d="M3900 2434 c0 -9 -5 -12 -12 -8 -7 4 -8 3 -4 -4 10 -16 14 -15 26 8
7 14 7 20 0 20 -5 0 -10 -7 -10 -16z"/>
<path d="M3990 2436 c0 -8 4 -17 9 -21 6 -3 9 4 8 15 -1 23 -17 28 -17 6z"/>
<path d="M3948 2428 c7 -9 9 -18 5 -20 -4 -3 -2 -3 6 -1 8 2 22 -4 32 -13 11
-10 19 -13 19 -8 0 5 -17 20 -38 33 -20 13 -31 17 -24 9z"/>
<path d="M3912 2409 c-7 -12 -11 -24 -8 -27 3 -3 6 0 6 7 0 7 4 10 8 7 4 -2 9
4 9 15 2 24 1 24 -15 -2z"/>
<path d="M3696 2407 c3 -10 9 -15 12 -12 3 3 0 11 -7 18 -10 9 -11 8 -5 -6z"/>
<path d="M3870 2405 c0 -5 5 -17 10 -25 5 -8 10 -10 10 -5 0 6 -5 17 -10 25
-5 8 -10 11 -10 5z"/>
<path d="M3929 2368 c-6 -12 -6 -18 1 -18 5 0 10 6 10 13 0 7 9 13 21 14 20 2
20 1 5 -16 -9 -10 -16 -22 -16 -27 0 -4 7 2 16 14 9 13 20 19 27 15 8 -4 7 -1
-1 9 -17 21 -51 19 -63 -4z"/>
<path d="M3813 2365 c0 -8 3 -13 5 -10 3 3 15 -3 26 -12 15 -13 14 -10 -3 10
-29 32 -28 31 -28 12z"/>
<path d="M3874 2346 c1 -8 5 -18 8 -22 4 -3 5 1 4 10 -1 8 -5 18 -8 22 -4 3
-5 -1 -4 -10z"/>
<path d="M3726 2338 c3 -5 10 -6 15 -3 13 9 11 12 -6 12 -8 0 -12 -4 -9 -9z"/>
<path d="M3975 2341 c-9 -8 -5 -31 5 -31 5 0 6 7 3 17 -4 9 -2 14 3 10 6 -3
16 -2 24 3 11 7 9 9 -8 7 -13 -1 -25 -3 -27 -6z"/>
<path d="M3998 2309 c-15 -16 -15 -18 -1 -23 9 -4 18 -4 21 -1 3 3 0 5 -8 5
-10 0 -10 3 0 15 18 22 8 25 -12 4z"/>
<path d="M3920 2311 c0 -6 4 -13 10 -16 6 -3 7 1 4 9 -7 18 -14 21 -14 7z"/>
<path d="M4050 2314 c0 -6 7 -17 15 -24 8 -7 12 -17 9 -22 -4 -5 -15 3 -25 18
-16 25 -18 26 -16 7 0 -12 4 -20 8 -17 4 2 9 -3 13 -11 5 -14 36 -11 36 4 -1
12 -40 56 -40 45z"/>
<path d="M4164 2270 c-16 -17 -40 -35 -53 -41 -13 -5 -21 -12 -18 -16 8 -7 48
19 83 54 26 28 27 25 8 -23 -3 -5 4 -21 16 -34 11 -13 20 -20 20 -16 0 4 7 0
16 -9 9 -9 19 -13 22 -10 4 3 0 10 -7 14 -9 6 -10 11 -2 15 6 4 11 12 11 19 0
6 -6 3 -13 -6 -11 -16 -14 -16 -35 -2 -12 9 -22 21 -22 27 0 6 8 4 18 -5 10
-10 23 -17 28 -17 5 0 2 5 -6 10 -8 5 -15 15 -16 22 0 7 -2 21 -2 31 -3 25
-15 21 -48 -13z"/>
<path d="M3836 2278 c3 -5 10 -6 15 -3 13 9 11 12 -6 12 -8 0 -12 -4 -9 -9z"/>
<path d="M3874 2248 l-19 -23 23 19 c12 11 22 21 22 23 0 8 -8 2 -26 -19z"/>
<path d="M4014 2262 c3 -6 -2 -13 -11 -15 -16 -4 -16 -5 -1 -6 21 -1 32 15 17
25 -7 4 -9 3 -5 -4z"/>
<path d="M4036 2235 c-3 -8 -1 -15 4 -15 6 0 10 7 10 15 0 8 -2 15 -4 15 -2 0
-6 -7 -10 -15z"/>
<path d="M4080 2240 c-8 -5 -12 -11 -10 -14 3 -2 14 2 24 10 22 15 10 19 -14
4z"/>
<path d="M3910 2236 c0 -2 8 -10 18 -17 15 -13 16 -12 3 4 -13 16 -21 21 -21
13z"/>
<path d="M3953 2225 c0 -8 4 -15 9 -15 4 0 8 4 8 9 0 6 -4 12 -8 15 -5 3 -9
-1 -9 -9z"/>
<path d="M4150 2225 c0 -3 12 -17 28 -30 15 -13 21 -25 15 -25 -13 0 21 -40
34 -40 3 0 -2 9 -12 20 -10 11 -13 20 -7 20 6 0 14 -4 17 -10 3 -5 14 -10 23
-10 10 0 3 8 -16 17 -18 9 -41 26 -51 39 -18 23 -31 31 -31 19z"/>
<path d="M4050 2200 c0 -5 5 -10 10 -10 6 0 10 5 10 10 0 6 -4 10 -10 10 -5 0
-10 -4 -10 -10z"/>
<path d="M4120 2200 c0 -5 5 -10 10 -10 6 0 10 5 10 10 0 6 -4 10 -10 10 -5 0
-10 -4 -10 -10z"/>
<path d="M4078 2188 c-7 -17 15 -19 29 -3 4 4 3 5 -4 2 -6 -4 -13 -2 -15 5 -3
8 -6 6 -10 -4z"/>
<path d="M4150 2180 c0 -5 5 -10 10 -10 6 0 10 5 10 10 0 6 -4 10 -10 10 -5 0
-10 -4 -10 -10z"/>
<path d="M3991 2167 c2 -1 13 -9 24 -17 19 -14 19 -14 6 3 -7 9 -18 17 -24 17
-6 0 -8 -1 -6 -3z"/>
<path d="M4100 2160 c-18 -12 -2 -12 25 0 13 6 15 9 5 9 -8 0 -22 -4 -30 -9z"/>
<path d="M4360 2154 c-17 -9 -20 -14 -9 -14 9 0 22 7 29 15 15 18 13 18 -20
-1z"/>
<path d="M4055 2150 c-3 -6 1 -7 9 -4 18 7 21 14 7 14 -6 0 -13 -4 -16 -10z"/>
<path d="M4290 2151 c0 -5 5 -13 10 -16 6 -3 10 -2 10 4 0 5 -4 13 -10 16 -5
3 -10 2 -10 -4z"/>
<path d="M4135 2140 c6 -9 4 -12 -6 -8 -9 4 -14 -2 -15 -18 -1 -13 3 -24 9
-24 6 0 7 3 4 7 -4 3 0 14 9 24 12 13 12 19 3 25 -8 5 -10 3 -4 -6z"/>
<path d="M4175 2140 c-3 -5 -1 -18 5 -27 9 -15 10 -14 4 6 -4 17 -3 21 6 16 9
-5 11 -4 6 3 -9 15 -13 15 -21 2z"/>
<path d="M4270 2144 c0 -13 18 -39 24 -34 2 3 -2 14 -10 24 -8 11 -14 16 -14
10z"/>
<path d="M4321 2137 c-2 -23 21 -45 44 -42 14 1 28 -2 31 -6 3 -5 9 -9 14 -9
5 0 -2 11 -16 25 -27 27 -44 34 -24 11 9 -12 8 -15 -9 -13 -14 1 -20 6 -16 15
2 7 1 11 -4 7 -5 -3 -12 1 -14 7 -3 7 -6 9 -6 5z"/>
<path d="M4472 2124 c-7 -8 -8 -14 -3 -14 10 0 25 19 20 25 -2 1 -10 -3 -17
-11z"/>
<path d="M4596 2125 c-9 -26 -7 -32 5 -12 6 10 9 21 6 23 -2 3 -7 -2 -11 -11z"/>
<path d="M4685 2120 c-3 -11 -11 -19 -18 -17 -6 1 -12 -7 -13 -18 -1 -15 0
-16 3 -2 3 9 9 15 14 12 5 -4 12 1 15 9 5 14 8 14 30 0 22 -15 24 -15 30 0 4
9 4 20 0 23 -3 4 -6 -1 -6 -11 0 -14 -4 -15 -20 -6 -11 6 -18 15 -15 21 4 5 2
9 -4 9 -5 0 -12 -9 -16 -20z"/>
<path d="M4921 2131 c-7 -5 -12 -13 -10 -18 2 -5 12 -1 22 9 18 19 12 24 -12
9z"/>
<path d="M4961 2135 c-1 -36 48 -55 70 -28 10 12 10 15 2 9 -7 -4 -13 -2 -13
3 0 6 -5 11 -11 11 -8 0 -7 -5 2 -16 11 -14 10 -15 -7 -12 -10 1 -24 12 -31
23 -7 11 -12 16 -12 10z"/>
<path d="M5110 2130 c0 -5 5 -10 10 -10 6 0 10 5 10 10 0 6 -4 10 -10 10 -5 0
-10 -4 -10 -10z"/>
<path d="M5236 2123 c-4 -9 -1 -20 6 -24 15 -9 28 -2 27 14 0 9 -2 8 -6 -1 -2
-6 -9 -10 -13 -7 -5 3 -7 12 -3 20 3 8 3 15 0 15 -3 0 -8 -8 -11 -17z"/>
<path d="M5325 2120 c-3 -11 -11 -19 -18 -17 -6 1 -12 -7 -13 -18 -1 -15 0
-16 3 -2 3 9 8 15 13 12 4 -3 15 6 24 20 9 14 12 25 7 25 -5 0 -12 -9 -16 -20z"/>
<path d="M5356 2123 c-7 -17 12 -36 26 -27 4 3 7 13 7 22 -1 15 -2 15 -6 -1
-2 -9 -8 -15 -13 -12 -5 3 -7 12 -3 20 3 8 3 15 0 15 -3 0 -8 -8 -11 -17z"/>
<path d="M5466 2125 c4 -8 11 -15 16 -15 6 0 5 6 -2 15 -7 8 -14 15 -16 15 -2
0 -1 -7 2 -15z"/>
<path d="M5600 2134 c0 -6 7 -19 15 -30 8 -10 14 -14 14 -9 0 6 -6 19 -14 29
-8 11 -15 15 -15 10z"/>
<path d="M5711 2120 c14 -31 19 -36 19 -24 0 6 -7 19 -16 30 -14 18 -14 18 -3
-6z"/>
<path d="M5831 2126 c-9 -10 -8 -15 2 -19 8 -3 13 3 13 14 0 23 0 23 -15 5z"/>
<path d="M4053 2115 c0 -8 4 -12 9 -9 5 3 6 10 3 15 -9 13 -12 11 -12 -6z"/>
<path d="M4240 2116 c0 -20 17 -29 26 -15 5 8 3 9 -6 4 -10 -6 -12 -4 -7 8 3
10 2 17 -3 17 -6 0 -10 -6 -10 -14z"/>
<path d="M4515 2120 c-3 -5 -2 -10 4 -10 5 0 13 5 16 10 3 6 2 10 -4 10 -5 0
-13 -4 -16 -10z"/>
<path d="M4640 2119 c0 -5 5 -7 10 -4 6 3 10 8 10 11 0 2 -4 4 -10 4 -5 0 -10
-5 -10 -11z"/>
<path d="M4880 2115 c0 -8 -5 -14 -12 -12 -6 1 -14 -6 -16 -15 -2 -10 1 -18 7
-18 6 0 7 7 4 17 -4 10 -2 14 5 9 6 -3 16 3 22 14 7 13 7 20 0 20 -5 0 -10 -7
-10 -15z"/>
<path d="M5093 2115 c2 -14 9 -20 25 -19 16 1 21 -3 18 -12 -3 -8 -1 -14 5
-14 6 0 9 8 7 18 -2 9 -12 17 -23 17 -11 0 -23 6 -27 15 -6 11 -7 10 -5 -5z"/>
<path d="M5155 2120 c-3 -5 -2 -10 4 -10 5 0 13 5 16 10 3 6 2 10 -4 10 -5 0
-13 -4 -16 -10z"/>
<path d="M5280 2119 c0 -5 5 -7 10 -4 6 3 10 8 10 11 0 2 -4 4 -10 4 -5 0 -10
-5 -10 -11z"/>
<path d="M5550 2115 c0 -8 2 -15 4 -15 2 0 6 7 10 15 3 8 1 15 -4 15 -6 0 -10
-7 -10 -15z"/>
<path d="M5640 2115 c0 -8 2 -15 4 -15 2 0 6 7 10 15 3 8 1 15 -4 15 -6 0 -10
-7 -10 -15z"/>
<path d="M5934 2118 c-4 -5 -3 -12 0 -15 3 -4 6 -1 6 6 0 7 5 9 10 6 6 -4 8
-10 6 -14 -3 -4 1 -8 9 -8 10 0 12 4 5 12 -5 7 -8 14 -5 17 3 2 -2 5 -10 5 -9
0 -18 -4 -21 -9z"/>
<path d="M4617 2113 c-4 -3 -7 -11 -7 -17 0 -6 5 -5 12 2 6 6 9 14 7 17 -3 3
-9 2 -12 -2z"/>
<path d="M4937 2113 c-4 -3 -7 -11 -7 -17 0 -6 5 -5 12 2 6 6 9 14 7 17 -3 3
-9 2 -12 -2z"/>
<path d="M5577 2113 c-4 -3 -7 -11 -7 -17 0 -6 5 -5 12 2 6 6 9 14 7 17 -3 3
-9 2 -12 -2z"/>
<path d="M3910 2100 c0 -5 5 -10 11 -10 5 0 7 5 4 10 -3 6 -8 10 -11 10 -2 0
-4 -4 -4 -10z"/>
<path d="M3996 2101 c-3 -5 2 -15 12 -22 15 -12 16 -12 5 2 -7 9 -10 19 -6 22
3 4 4 7 0 7 -3 0 -8 -4 -11 -9z"/>
<path d="M4219 2108 c-8 -27 -5 -36 9 -30 10 4 12 7 4 10 -7 2 -10 8 -6 13 3
5 3 9 0 9 -3 0 -6 -1 -7 -2z"/>
<path d="M4310 2101 c0 -6 4 -13 10 -16 6 -3 7 1 4 9 -7 18 -14 21 -14 7z"/>
<path d="M4430 2100 c0 -5 5 -10 10 -10 6 0 10 5 10 10 0 6 -4 10 -10 10 -5 0
-10 -4 -10 -10z"/>
<path d="M4475 2094 c-10 -8 -14 -14 -9 -14 6 0 16 6 23 13 11 10 13 9 8 -5
-4 -10 -2 -18 3 -18 12 0 13 27 2 34 -4 2 -16 -2 -27 -10z"/>
<path d="M4767 2093 c5 -12 3 -14 -8 -8 -8 5 -11 4 -6 0 4 -5 14 -10 22 -11
12 -2 12 2 5 17 -13 23 -22 25 -13 2z"/>
<path d="M4800 2098 c-12 -8 -11 -9 4 -4 13 5 17 2 12 -9 -3 -8 -1 -15 4 -15
12 0 13 27 2 34 -4 2 -14 0 -22 -6z"/>
<path d="M5042 2098 c-7 -7 -12 -16 -12 -22 0 -5 7 -1 16 10 13 16 15 16 10 2
-3 -10 -1 -18 4 -18 12 0 13 27 2 34 -5 3 -14 0 -20 -6z"/>
<path d="M5407 2093 c5 -12 3 -14 -8 -8 -8 5 -11 4 -6 0 4 -5 14 -10 22 -11
12 -2 12 2 5 17 -13 23 -22 25 -13 2z"/>
<path d="M5440 2098 c-12 -8 -11 -9 4 -4 13 5 17 2 12 -9 -3 -8 -1 -15 4 -15
12 0 13 27 2 34 -4 2 -14 0 -22 -6z"/>
<path d="M5791 2087 c-13 -21 -12 -21 5 -5 10 10 16 20 13 22 -3 3 -11 -5 -18
-17z"/>
<path d="M6135 2100 c3 -5 8 -10 11 -10 2 0 4 5 4 10 0 6 -5 10 -11 10 -5 0
-7 -4 -4 -10z"/>
<path d="M4176 2073 c-6 -14 -5 -15 5 -6 7 7 10 15 7 18 -3 3 -9 -2 -12 -12z"/>
<path d="M4273 2074 c0 -7 6 -10 14 -7 7 3 13 8 13 12 0 4 -6 8 -13 8 -8 0
-14 -6 -14 -13z"/>
<path d="M4565 2080 c-3 -6 1 -7 9 -4 18 7 21 14 7 14 -6 0 -13 -4 -16 -10z"/>
<path d="M4620 2070 c-6 -11 -8 -20 -6 -20 3 0 10 9 16 20 6 11 8 20 6 20 -3
0 -10 -9 -16 -20z"/>
<path d="M4885 2080 c-3 -6 1 -7 9 -4 18 7 21 14 7 14 -6 0 -13 -4 -16 -10z"/>
<path d="M4945 2079 c-11 -16 -1 -19 13 -3 7 8 8 14 3 14 -5 0 -13 -5 -16 -11z"/>
<path d="M5205 2080 c-3 -6 1 -7 9 -4 18 7 21 14 7 14 -6 0 -13 -4 -16 -10z"/>
<path d="M5260 2070 c-6 -11 -8 -20 -6 -20 3 0 10 9 16 20 6 11 8 20 6 20 -3
0 -10 -9 -16 -20z"/>
<path d="M5587 2083 c-4 -3 -7 -11 -7 -17 0 -6 5 -4 10 4 8 13 11 12 25 -5 16
-20 16 -19 5 3 -11 22 -21 27 -33 15z"/>
<path d="M5748 2082 c8 -5 13 -13 12 -18 -1 -5 4 -10 12 -12 11 -3 11 -2 0 6
-8 5 -13 13 -12 18 1 5 -4 10 -12 12 -11 3 -11 2 0 -6z"/>
<path d="M5814 2079 c-4 -7 -3 -9 4 -5 5 3 12 0 15 -6 2 -7 7 -10 11 -7 4 3 0
12 -8 18 -11 9 -16 9 -22 0z"/>
<path d="M5910 2081 c0 -6 4 -13 10 -16 6 -3 7 1 4 9 -7 18 -14 21 -14 7z"/>
<path d="M5990 2081 c0 -5 8 -15 18 -22 15 -12 16 -12 5 2 -7 9 -10 19 -6 22
3 4 1 7 -5 7 -7 0 -12 -4 -12 -9z"/>
<path d="M6039 2073 c-13 -16 -12 -17 4 -4 16 13 21 21 13 21 -2 0 -10 -8 -17
-17z"/>
<path d="M4113 2067 c0 -8 6 -14 14 -14 9 0 10 4 2 14 -6 7 -12 13 -14 13 -1
0 -2 -6 -2 -13z"/>
<path d="M4350 2070 c8 -5 20 -10 25 -10 6 0 3 5 -5 10 -8 5 -19 10 -25 10 -5
0 -3 -5 5 -10z"/>
<path d="M4441 2073 c-1 -17 16 -25 25 -12 4 7 3 9 -4 5 -5 -3 -13 0 -15 6 -4
9 -6 10 -6 1z"/>
<path d="M4590 2070 c-9 -6 -10 -10 -3 -10 6 0 15 5 18 10 8 12 4 12 -15 0z"/>
<path d="M4712 2071 c-10 -6 -9 -10 7 -14 12 -3 24 0 28 5 3 6 1 8 -5 4 -5 -3
-12 -2 -14 4 -2 5 -9 6 -16 1z"/>
<path d="M4912 2071 c-11 -7 -11 -9 0 -14 9 -3 15 1 15 9 0 8 -1 14 -1 14 -1
0 -7 -4 -14 -9z"/>
<path d="M4981 2076 c2 -2 15 -9 29 -15 24 -11 24 -11 6 3 -16 13 -49 24 -35
12z"/>
<path d="M5110 2071 c0 -7 -5 -9 -12 -5 -7 4 -10 3 -5 -1 4 -5 18 -10 30 -12
12 -2 18 0 12 5 -5 4 -13 11 -17 16 -5 5 -8 4 -8 -3z"/>
<path d="M5230 2070 c-9 -6 -10 -10 -3 -10 6 0 15 5 18 10 8 12 4 12 -15 0z"/>
<path d="M5357 2073 c-4 -6 0 -13 8 -17 8 -3 17 0 21 6 4 6 3 8 -4 4 -5 -3
-12 -1 -14 6 -3 8 -6 9 -11 1z"/>
<path d="M5637 2069 c7 -7 15 -10 18 -7 3 3 -2 9 -12 12 -14 6 -15 5 -6 -5z"/>
<path d="M4238 2063 c7 -3 16 -2 19 1 4 3 -2 6 -13 5 -11 0 -14 -3 -6 -6z"/>
<path d="M4670 2059 c0 -5 5 -7 10 -4 6 3 10 8 10 11 0 2 -4 4 -10 4 -5 0 -10
-5 -10 -11z"/>
<path d="M4952 2050 c-18 -29 -15 -38 4 -12 9 13 14 25 12 27 -2 2 -9 -5 -16
-15z"/>
<path d="M5310 2060 c0 -5 7 -7 15 -4 8 4 15 8 15 10 0 2 -7 4 -15 4 -8 0 -15
-4 -15 -10z"/>
<path d="M5510 2060 c-8 -5 -10 -10 -5 -10 6 0 17 5 25 10 8 5 11 10 5 10 -5
0 -17 -5 -25 -10z"/>
<path d="M5555 2060 c3 -5 8 -10 11 -10 2 0 4 5 4 10 0 6 -5 10 -11 10 -5 0
-7 -4 -4 -10z"/>
<path d="M5868 2063 c7 -3 16 -2 19 1 4 3 -2 6 -13 5 -11 0 -14 -3 -6 -6z"/>
<path d="M3989 2043 c-13 -16 -12 -17 4 -4 16 13 21 21 13 21 -2 0 -10 -8 -17
-17z"/>
<path d="M4475 2050 c-3 -6 1 -7 9 -4 18 7 21 14 7 14 -6 0 -13 -4 -16 -10z"/>
<path d="M4749 2043 c-13 -17 -13 -17 6 -3 11 8 22 16 24 17 2 2 0 3 -6 3 -6
0 -17 -8 -24 -17z"/>
<path d="M4795 2050 c-3 -6 1 -7 9 -4 18 7 21 14 7 14 -6 0 -13 -4 -16 -10z"/>
<path d="M5060 2056 c0 -2 7 -7 16 -10 8 -3 12 -2 9 4 -6 10 -25 14 -25 6z"/>
<path d="M5389 2043 c-13 -17 -13 -17 6 -3 11 8 22 16 24 17 2 2 0 3 -6 3 -6
0 -17 -8 -24 -17z"/>
<path d="M5468 2053 c7 -3 16 -2 19 1 4 3 -2 6 -13 5 -11 0 -14 -3 -6 -6z"/>
<path d="M5793 2045 c0 -8 4 -15 9 -15 4 0 8 4 8 9 0 6 -4 12 -8 15 -5 3 -9
-1 -9 -9z"/>
<path d="M3870 2041 c0 -6 4 -13 10 -16 6 -3 7 1 4 9 -7 18 -14 21 -14 7z"/>
<path d="M4310 2046 c0 -2 7 -7 16 -10 8 -3 12 -2 9 4 -6 10 -25 14 -25 6z"/>
<path d="M4373 2035 c0 -8 4 -12 9 -9 4 3 8 9 8 15 0 5 -4 9 -8 9 -5 0 -9 -7
-9 -15z"/>
<path d="M4405 2040 c-3 -6 1 -7 9 -4 18 7 21 14 7 14 -6 0 -13 -4 -16 -10z"/>
<path d="M4570 2039 c0 -5 5 -7 10 -4 6 3 10 8 10 11 0 2 -4 4 -10 4 -5 0 -10
-5 -10 -11z"/>
<path d="M4627 2044 c-4 -4 -7 -12 -7 -18 0 -6 5 -4 10 4 9 13 11 13 21 0 9
-12 10 -12 7 -1 -5 17 -21 25 -31 15z"/>
<path d="M4695 2040 c3 -5 8 -10 11 -10 2 0 4 5 4 10 0 6 -5 10 -11 10 -5 0
-7 -4 -4 -10z"/>
<path d="M4890 2041 c0 -6 4 -12 8 -15 5 -3 9 1 9 9 0 8 -4 15 -9 15 -4 0 -8
-4 -8 -9z"/>
<path d="M4998 2032 c-3 -11 0 -19 7 -19 7 0 10 8 7 19 -2 10 -6 18 -7 18 -1
0 -5 -8 -7 -18z"/>
<path d="M5035 2040 c-3 -5 -1 -10 4 -10 6 0 11 5 11 10 0 6 -2 10 -4 10 -3 0
-8 -4 -11 -10z"/>
<path d="M5210 2041 c0 -6 4 -12 8 -15 5 -3 9 1 9 9 0 8 -4 15 -9 15 -4 0 -8
-4 -8 -9z"/>
<path d="M5267 2044 c-4 -4 -7 -12 -7 -18 0 -6 5 -4 10 4 9 13 11 13 21 0 9
-12 10 -12 7 -1 -5 17 -21 25 -31 15z"/>
<path d="M5335 2040 c3 -5 8 -10 11 -10 2 0 4 5 4 10 0 6 -5 10 -11 10 -5 0
-7 -4 -4 -10z"/>
<path d="M5584 2039 c-5 -8 -3 -9 6 -4 7 4 16 2 22 -6 8 -12 9 -12 6 0 -6 20
-24 25 -34 10z"/>
<path d="M5653 2035 c0 -8 4 -12 9 -9 4 3 8 9 8 15 0 5 -4 9 -8 9 -5 0 -9 -7
-9 -15z"/>
<path d="M5720 2040 c-12 -7 -10 -9 8 -7 12 0 22 5 22 9 0 11 -12 10 -30 -2z"/>
<path d="M5853 2033 c0 -9 4 -10 14 -2 7 6 13 12 13 14 0 1 -6 2 -13 2 -8 0
-14 -6 -14 -14z"/>
<path d="M4015 2019 c-3 -4 2 -6 10 -5 21 3 28 13 10 13 -9 0 -18 -4 -20 -8z"/>
<path d="M4224 2022 c4 -3 14 -7 22 -8 9 -1 13 0 10 4 -4 3 -14 7 -22 8 -9 1
-13 0 -10 -4z"/>
<path d="M4420 2024 c0 -1 8 -8 17 -15 9 -8 14 -9 10 -2 -4 6 -1 13 5 16 7 3
3 4 -9 4 -13 -1 -23 -2 -23 -3z"/>
<path d="M4478 2023 c7 -3 16 -2 19 1 4 3 -2 6 -13 5 -11 0 -14 -3 -6 -6z"/>
<path d="M4759 2028 c-5 -18 -6 -38 -1 -34 7 8 12 36 6 36 -2 0 -4 -1 -5 -2z"/>
<path d="M4788 2023 c10 -4 9 -10 -5 -26 -12 -15 -13 -18 -2 -9 9 6 19 10 22
7 4 -3 5 -2 2 2 -3 3 -1 11 5 17 6 8 2 12 -13 13 -12 0 -16 -1 -9 -4z"/>
<path d="M5060 2024 c0 -1 8 -8 17 -15 9 -8 14 -9 10 -2 -4 6 -1 13 5 16 7 3
3 4 -9 4 -13 -1 -23 -2 -23 -3z"/>
<path d="M5117 2013 c3 -7 6 -13 8 -13 2 0 5 6 8 13 3 8 -1 14 -8 14 -7 0 -11
-6 -8 -14z"/>
<path d="M5399 2028 c-5 -18 -6 -38 -1 -34 7 8 12 36 6 36 -2 0 -4 -1 -5 -2z"/>
<path d="M5428 2023 c10 -4 9 -10 -5 -26 -12 -15 -13 -18 -2 -9 9 6 19 10 22
7 4 -3 5 -2 2 2 -3 3 -1 11 5 17 6 8 2 12 -13 13 -12 0 -16 -1 -9 -4z"/>
<path d="M4270 2017 c0 -2 6 -10 14 -16 11 -9 16 -9 22 1 4 7 4 10 -1 6 -4 -4
-14 -3 -22 3 -7 6 -13 9 -13 6z"/>
<path d="M4333 2007 c0 -8 6 -14 14 -14 9 0 10 4 2 14 -6 7 -12 13 -14 13 -1
0 -2 -6 -2 -13z"/>
<path d="M5580 2011 c0 -5 -14 -7 -30 -6 -17 1 -32 -1 -35 -4 -2 -4 12 -7 32
-6 20 0 38 6 41 13 2 7 1 12 -2 12 -3 0 -6 -4 -6 -9z"/>
<path d="M5702 2004 c10 -10 20 -16 22 -13 3 3 -5 11 -17 18 -21 13 -21 12 -5
-5z"/>
<path d="M4196 1993 c-6 -14 -5 -15 5 -6 7 7 10 15 7 18 -3 3 -9 -2 -12 -12z"/>
<path d="M4410 2001 c0 -6 4 -13 10 -16 6 -3 7 1 4 9 -7 18 -14 21 -14 7z"/>
<path d="M4486 1998 c3 -5 10 -6 15 -3 13 9 11 12 -6 12 -8 0 -12 -4 -9 -9z"/>
<path d="M4600 2005 c0 -2 6 -8 13 -14 10 -8 14 -7 14 2 0 8 -6 14 -14 14 -7
0 -13 -1 -13 -2z"/>
<path d="M4653 1993 c0 -9 4 -10 14 -2 7 6 13 12 13 14 0 1 -6 2 -13 2 -8 0
-14 -6 -14 -14z"/>
<path d="M4886 1999 c2 -4 12 -6 22 -4 9 1 22 -1 28 -6 6 -5 11 -4 11 4 0 8
-13 13 -33 13 -18 0 -31 -3 -28 -7z"/>
<path d="M5206 1999 c2 -4 12 -6 22 -4 9 1 22 -1 28 -6 6 -5 11 -4 11 4 0 8
-13 13 -33 13 -18 0 -31 -3 -28 -7z"/>
<path d="M5293 1993 c0 -9 4 -10 14 -2 7 6 13 12 13 14 0 1 -6 2 -13 2 -8 0
-14 -6 -14 -14z"/>
<path d="M5613 1993 c0 -8 5 -9 11 -4 6 5 19 7 28 6 10 -2 20 0 22 4 3 4 -10
7 -28 7 -20 0 -33 -5 -33 -13z"/>
<path d="M4706 1978 c3 -4 9 -8 15 -8 5 0 9 4 9 8 0 5 -7 9 -15 9 -8 0 -12 -4
-9 -9z"/>
<path d="M4999 1973 c-13 -16 -12 -17 4 -4 9 7 17 15 17 17 0 8 -8 3 -21 -13z"/>
<path d="M5346 1978 c3 -4 9 -8 15 -8 5 0 9 4 9 8 0 5 -7 9 -15 9 -8 0 -12 -4
-9 -9z"/>
<path d="M5750 1980 c0 -5 5 -10 10 -10 6 0 10 5 10 10 0 6 -4 10 -10 10 -5 0
-10 -4 -10 -10z"/>
<path d="M6056 1978 c3 -5 10 -6 15 -3 13 9 11 12 -6 12 -8 0 -12 -4 -9 -9z"/>
<path d="M4495 1969 c-4 -6 -5 -12 -2 -15 2 -3 7 2 10 11 7 17 1 20 -8 4z"/>
<path d="M5135 1969 c-4 -6 -5 -12 -2 -15 2 -3 7 2 10 11 7 17 1 20 -8 4z"/>
<path d="M5530 1976 c0 -2 8 -10 18 -17 15 -13 16 -12 3 4 -13 16 -21 21 -21
13z"/>
<path d="M5575 1971 c-3 -5 -2 -12 3 -15 5 -3 9 1 9 9 0 17 -3 19 -12 6z"/>
<path d="M6116 1967 c3 -10 9 -15 12 -12 3 3 0 11 -7 18 -10 9 -11 8 -5 -6z"/>
<path d="M4179 1968 c-5 -18 -6 -38 -1 -34 7 8 12 36 6 36 -2 0 -4 -1 -5 -2z"/>
<path d="M4590 1961 c0 -6 4 -13 10 -16 6 -3 7 1 4 9 -7 18 -14 21 -14 7z"/>
<path d="M4756 1958 c3 -5 10 -6 15 -3 13 9 11 12 -6 12 -8 0 -12 -4 -9 -9z"/>
<path d="M4910 1961 c0 -6 4 -13 10 -16 6 -3 7 1 4 9 -7 18 -14 21 -14 7z"/>
<path d="M5396 1958 c3 -5 10 -6 15 -3 13 9 11 12 -6 12 -8 0 -12 -4 -9 -9z"/>
<path d="M5786 1962 c-2 -4 4 -8 14 -8 10 0 16 4 14 8 -3 4 -9 8 -14 8 -5 0
-11 -4 -14 -8z"/>
<path d="M5937 1955 c-4 -8 -3 -16 1 -19 4 -3 9 4 9 15 2 23 -3 25 -10 4z"/>
<path d="M5893 1945 c0 -8 4 -12 9 -9 5 3 6 10 3 15 -9 13 -12 11 -12 -6z"/>
<path d="M4113 1935 c0 -8 4 -12 9 -9 5 3 6 10 3 15 -9 13 -12 11 -12 -6z"/>
<path d="M4290 1939 c0 -5 5 -7 10 -4 6 3 10 8 10 11 0 2 -4 4 -10 4 -5 0 -10
-5 -10 -11z"/>
<path d="M4335 1940 c3 -5 8 -10 11 -10 2 0 4 5 4 10 0 6 -5 10 -11 10 -5 0
-7 -4 -4 -10z"/>
<path d="M5650 1939 c0 -5 5 -7 10 -4 6 3 10 8 10 11 0 2 -4 4 -10 4 -5 0 -10
-5 -10 -11z"/>
<path d="M5730 1939 c0 -5 5 -7 10 -4 6 3 10 8 10 11 0 2 -4 4 -10 4 -5 0 -10
-5 -10 -11z"/>
<path d="M4750 1936 c0 -2 8 -10 18 -17 15 -13 16 -12 3 4 -13 16 -21 21 -21
13z"/>
<path d="M5390 1936 c0 -2 8 -10 18 -17 15 -13 16 -12 3 4 -13 16 -21 21 -21
13z"/>
<path d="M4550 1920 c0 -5 5 -10 10 -10 6 0 10 5 10 10 0 6 -4 10 -10 10 -5 0
-10 -4 -10 -10z"/>
<path d="M4873 1915 c0 -8 4 -12 9 -9 4 3 8 9 8 15 0 5 -4 9 -8 9 -5 0 -9 -7
-9 -15z"/>
<path d="M5193 1915 c0 -8 4 -12 9 -9 4 3 8 9 8 15 0 5 -4 9 -8 9 -5 0 -9 -7
-9 -15z"/>
<path d="M5516 1913 c-6 -14 -5 -15 5 -6 7 7 10 15 7 18 -3 3 -9 -2 -12 -12z"/>
<path d="M4453 1889 c-2 -23 3 -25 10 -4 4 8 3 16 -1 19 -4 3 -9 -4 -9 -15z"/>
<path d="M4615 1901 c-3 -5 -2 -12 3 -15 5 -3 9 1 9 9 0 17 -3 19 -12 6z"/>
<path d="M4676 1898 c3 -4 11 -5 19 -1 21 7 19 12 -4 10 -11 0 -18 -5 -15 -9z"/>
<path d="M4935 1901 c-3 -5 -2 -12 3 -15 5 -3 9 1 9 9 0 17 -3 19 -12 6z"/>
<path d="M5006 1902 c-3 -5 1 -9 9 -9 8 0 12 4 9 9 -3 4 -7 8 -9 8 -2 0 -6 -4
-9 -8z"/>
<path d="M5255 1901 c-3 -5 -2 -12 3 -15 5 -3 9 1 9 9 0 17 -3 19 -12 6z"/>
<path d="M5326 1902 c-3 -5 1 -9 9 -9 8 0 12 4 9 9 -3 4 -7 8 -9 8 -2 0 -6 -4
-9 -8z"/>
<path d="M5575 1901 c-3 -5 -2 -12 3 -15 5 -3 9 1 9 9 0 17 -3 19 -12 6z"/>
<path d="M5690 1906 c0 -2 7 -7 16 -10 8 -3 12 -2 9 4 -6 10 -25 14 -25 6z"/>
<path d="M5773 1895 c0 -8 4 -12 9 -9 5 3 6 10 3 15 -9 13 -12 11 -12 -6z"/>
</g>
</svg>
